<svg id="svg" version="1.1" xmlns="http://www.w3.org/2000/svg" xmlns:xlink="http://www.w3.org/1999/xlink" width="400" height="400" viewBox="0, 0, 400,400"><g id="svgg"><path id="path0" d="M125.000 56.076 C 110.664 57.745,110.700 57.410,122.508 79.592 C 159.681 149.416,159.012 148.150,158.838 148.323 C 158.765 148.396,148.002 145.395,134.919 141.653 C 102.087 132.262,95.748 130.527,93.945 130.437 C 78.324 129.659,75.737 130.891,79.047 137.534 C 83.070 145.610,80.382 143.892,120.703 164.159 C 158.147 182.981,155.768 181.979,169.141 184.560 C 175.820 185.850,175.291 185.565,178.112 189.388 C 187.675 202.348,197.843 209.225,206.232 208.408 L 208.789 208.159 214.153 213.012 C 217.613 216.144,220.295 218.958,221.711 220.945 C 222.918 222.638,224.342 224.487,224.875 225.054 L 225.845 226.086 223.694 227.070 C 218.997 229.220,218.213 230.291,205.918 251.332 C 199.113 262.979,197.266 266.432,197.266 267.507 C 197.266 268.603,195.770 271.276,189.706 281.019 C 179.690 297.110,164.953 321.062,156.617 334.800 C 138.807 364.149,139.929 361.333,146.044 361.322 C 150.215 361.315,149.550 361.877,153.893 354.688 C 158.845 346.493,177.220 316.486,191.491 293.291 L 203.189 274.278 206.575 276.453 C 213.925 281.175,218.004 284.110,217.834 284.554 C 217.736 284.810,207.443 302.039,194.961 322.841 C 182.478 343.643,172.266 360.822,172.266 361.016 C 172.266 361.650,197.320 361.227,198.299 360.576 C 199.260 359.938,200.632 357.586,235.282 297.178 C 236.563 294.945,237.720 293.448,238.638 292.838 C 239.760 292.092,241.743 289.002,248.609 277.301 C 253.323 269.268,258.091 261.377,259.206 259.766 C 261.508 256.437,262.891 253.855,262.891 252.883 C 262.891 252.518,263.563 251.325,264.385 250.231 C 268.622 244.593,269.640 241.642,269.719 234.766 C 269.754 231.728,270.059 228.021,270.437 226.023 C 271.834 218.642,270.341 200.776,267.806 194.535 C 266.291 190.807,264.725 189.046,255.123 180.273 C 246.770 172.641,246.143 171.975,246.113 170.703 C 245.908 162.079,242.688 157.866,230.819 150.696 C 226.652 148.178,220.522 144.438,217.198 142.384 C 209.189 137.435,204.455 136.110,199.677 137.481 C 198.693 137.763,198.066 137.701,197.061 137.221 L 195.738 136.591 197.449 135.085 C 201.903 131.165,199.580 127.086,180.027 104.492 C 173.706 97.188,162.581 84.268,155.307 75.781 C 135.095 52.203,138.613 54.491,125.000 56.076 M146.603 87.012 C 155.508 100.063,166.945 116.797,172.019 124.197 L 181.243 137.652 179.782 138.846 C 177.571 140.651,175.851 142.581,174.714 144.531 C 174.150 145.498,173.659 146.336,173.622 146.393 C 173.585 146.451,171.572 145.286,169.148 143.806 L 164.742 141.114 158.908 130.225 C 155.700 124.236,149.058 111.777,144.148 102.539 C 139.239 93.301,132.659 80.922,129.528 75.030 C 126.396 69.138,123.888 64.263,123.955 64.196 C 124.052 64.099,127.690 63.574,129.952 63.331 C 130.205 63.303,137.698 73.960,146.603 87.012 M109.216 142.215 C 131.635 149.250,147.081 153.963,159.042 157.420 C 165.744 159.357,171.317 161.030,171.425 161.139 C 171.533 161.247,172.011 162.563,172.487 164.062 C 173.516 167.310,175.251 170.133,177.421 172.093 C 178.963 173.487,180.218 174.143,187.109 177.159 C 189.948 178.402,192.470 179.812,190.625 179.125 C 190.303 179.005,185.569 177.762,180.106 176.362 L 170.173 173.818 149.637 163.993 C 112.513 146.232,109.239 144.662,103.125 141.687 C 99.795 140.066,97.263 138.725,97.498 138.706 C 97.733 138.687,103.006 140.266,109.216 142.215 M188.590 146.010 C 187.022 149.175,185.032 160.019,185.297 163.965 C 185.508 167.116,185.497 167.131,183.805 165.972 C 177.071 161.357,178.855 148.719,186.800 144.759 C 189.675 143.326,189.857 143.454,188.590 146.010 M207.813 146.639 C 211.024 148.229,233.377 162.086,234.663 163.284 C 237.202 165.652,238.507 170.168,237.600 173.451 L 237.219 174.831 244.254 181.263 C 261.408 196.947,260.634 195.898,261.900 205.171 C 264.388 223.390,262.773 230.038,255.478 231.602 C 252.914 232.152,245.167 231.130,241.797 229.797 C 239.598 228.927,229.556 218.324,230.262 217.617 C 230.563 217.317,232.352 215.996,234.238 214.683 C 238.267 211.877,239.118 210.451,238.331 207.824 C 237.846 206.207,234.424 203.063,207.422 179.426 C 192.053 165.972,192.348 166.485,194.285 156.583 C 196.240 146.587,200.854 143.195,207.813 146.639 M203.081 159.180 C 199.825 160.949,201.349 165.625,205.183 165.625 C 208.407 165.625,209.779 162.063,207.452 159.736 C 206.181 158.465,204.735 158.281,203.081 159.180 M216.974 168.127 C 214.673 169.129,213.574 172.628,214.826 174.967 C 215.384 176.009,249.679 206.910,251.102 207.652 C 254.388 209.367,257.813 207.022,257.813 203.058 C 257.813 200.957,257.012 200.156,236.784 182.020 C 219.695 166.699,219.908 166.849,216.974 168.127 M197.063 192.530 C 201.855 197.166,204.434 199.993,204.139 200.288 C 203.061 201.366,196.848 197.315,191.919 192.322 C 187.768 188.116,187.647 187.757,190.496 188.103 C 192.744 188.376,192.829 188.434,197.063 192.530 M235.965 236.459 C 247.564 240.925,255.078 246.524,255.078 250.700 C 255.078 251.099,253.747 253.571,252.121 256.193 L 249.163 260.960 247.156 259.155 C 243.060 255.472,233.923 250.041,224.535 245.708 C 221.840 244.464,220.067 243.431,220.210 243.187 C 225.784 233.663,227.168 233.072,235.965 236.459 M220.807 252.591 C 228.385 256.390,239.325 263.479,243.419 267.243 L 244.846 268.555 239.904 277.021 C 237.185 281.678,234.844 285.603,234.702 285.744 C 234.559 285.885,232.626 284.781,230.405 283.292 C 224.799 279.531,215.540 274.003,209.961 271.086 C 207.383 269.738,205.328 268.441,205.395 268.204 C 205.505 267.816,213.757 253.408,215.094 251.270 C 215.832 250.088,215.803 250.081,220.807 252.591 M155.957 360.839 C 158.911 360.905,163.745 360.905,166.699 360.839 C 169.653 360.773,167.236 360.718,161.328 360.718 C 155.420 360.718,153.003 360.773,155.957 360.839 " stroke="none" fill="#354c66" fill-rule="evenodd"></path><path id="path1" d="M189.063 48.692 C 174.982 50.020,166.005 51.668,155.078 54.929 C 149.623 56.557,141.758 59.457,141.879 59.795 C 142.003 60.141,148.705 67.967,174.799 98.234 C 194.252 120.799,195.456 122.306,197.867 127.090 C 200.172 131.664,199.924 134.318,197.071 135.618 C 194.703 136.697,197.268 137.702,200.907 137.120 C 206.354 136.250,209.093 137.179,218.821 143.196 C 222.542 145.497,228.384 149.068,231.804 151.131 C 242.405 157.526,246.094 162.389,246.094 169.968 L 246.094 171.803 254.679 179.680 C 266.738 190.743,267.548 191.800,269.127 198.516 C 270.978 206.392,271.702 221.426,270.487 226.758 C 269.978 228.992,269.806 231.083,269.885 234.091 C 270.052 240.463,268.903 244.211,265.241 249.247 C 264.163 250.729,263.280 252.164,263.277 252.435 C 263.270 253.403,261.288 257.173,259.449 259.719 C 258.421 261.141,253.835 268.721,249.258 276.563 C 241.818 289.309,239.409 292.904,237.974 293.403 C 237.549 293.551,233.971 299.676,217.694 328.125 C 208.479 344.230,208.506 342.693,217.461 341.403 C 313.459 327.571,372.154 232.614,339.395 144.141 C 317.114 83.969,252.172 42.736,189.063 48.692 M114.497 74.580 C 15.177 143.695,36.779 294.322,151.692 333.945 L 156.056 335.450 157.979 332.276 C 163.306 323.485,183.767 290.273,189.777 280.664 C 195.225 271.952,196.680 269.337,196.927 267.812 C 197.167 266.331,199.156 262.612,205.700 251.406 C 217.626 230.983,218.843 229.279,223.006 227.169 C 225.351 225.981,225.359 225.947,223.784 223.979 C 223.116 223.144,221.903 221.486,221.090 220.296 C 220.277 219.105,217.211 215.956,214.277 213.298 L 208.942 208.467 204.343 208.432 C 196.034 208.371,185.694 200.742,177.230 188.428 L 175.586 186.036 167.578 184.398 C 155.512 181.930,155.734 182.025,119.932 163.978 C 81.566 144.639,83.818 145.976,80.565 140.610 C 74.953 131.356,75.952 130.151,89.282 130.098 C 95.400 130.074,92.061 129.258,129.235 139.869 C 144.991 144.367,158.058 148.047,158.272 148.047 C 158.798 148.047,155.118 141.034,123.647 82.059 C 120.846 76.811,118.379 72.468,118.164 72.408 C 117.949 72.348,116.299 73.326,114.497 74.580 M179.778 157.031 C 179.778 157.783,179.859 158.091,179.957 157.715 C 180.055 157.339,180.055 156.724,179.957 156.348 C 179.859 155.972,179.778 156.279,179.778 157.031 M237.500 175.513 C 237.500 175.580,238.071 176.151,238.770 176.782 L 240.039 177.930 238.892 176.660 C 237.822 175.477,237.500 175.211,237.500 175.513 M242.188 179.810 C 242.188 179.877,242.759 180.448,243.457 181.079 L 244.727 182.227 243.579 180.957 C 242.510 179.774,242.188 179.508,242.188 179.810 M239.063 183.716 C 239.063 183.783,239.634 184.354,240.332 184.986 L 241.602 186.133 240.454 184.863 C 239.385 183.680,239.063 183.414,239.063 183.716 M248.242 185.547 C 249.081 186.406,249.856 187.109,249.963 187.109 C 250.071 187.109,249.472 186.406,248.633 185.547 C 247.794 184.688,247.019 183.984,246.912 183.984 C 246.804 183.984,247.403 184.688,248.242 185.547 M253.125 190.039 C 253.854 190.791,254.538 191.406,254.645 191.406 C 254.753 191.406,254.244 190.791,253.516 190.039 C 252.787 189.287,252.103 188.672,251.995 188.672 C 251.888 188.672,252.396 189.287,253.125 190.039 M250.391 193.872 C 250.391 193.939,250.962 194.511,251.660 195.142 L 252.930 196.289 251.782 195.020 C 250.713 193.836,250.391 193.570,250.391 193.872 M245.313 203.247 C 245.313 203.314,245.884 203.886,246.582 204.517 L 247.852 205.664 246.704 204.395 C 245.635 203.211,245.313 202.945,245.313 203.247 M238.770 209.180 C 238.775 210.039,238.855 210.345,238.948 209.859 C 239.042 209.373,239.038 208.670,238.940 208.296 C 238.842 207.923,238.766 208.320,238.770 209.180 M262.639 218.945 C 262.637 220.879,262.704 221.719,262.785 220.813 C 262.867 219.906,262.868 218.324,262.788 217.297 C 262.707 216.270,262.640 217.012,262.639 218.945 M236.523 225.000 C 238.664 227.148,240.503 228.906,240.610 228.906 C 240.718 228.906,239.054 227.148,236.914 225.000 C 234.774 222.852,232.935 221.094,232.827 221.094 C 232.720 221.094,234.383 222.852,236.523 225.000 M252.051 231.530 C 252.642 231.619,253.608 231.619,254.199 231.530 C 254.790 231.440,254.307 231.367,253.125 231.367 C 251.943 231.367,251.460 231.440,252.051 231.530 " stroke="none" fill="#9bd1f1" fill-rule="evenodd"></path><path id="path2" d="M0.000 200.000 L 0.000 400.000 200.000 400.000 L 400.000 400.000 400.000 200.000 L 400.000 0.000 200.000 0.000 L 0.000 0.000 0.000 200.000 M216.602 49.191 C 318.026 61.171,377.663 166.291,334.403 256.836 C 311.920 303.896,267.314 335.510,214.308 341.953 C 211.757 342.263,209.533 342.663,209.365 342.841 C 209.198 343.018,207.006 346.768,204.495 351.172 C 201.985 355.576,199.415 359.664,198.784 360.257 L 197.638 361.333 169.815 361.233 L 141.992 361.133 141.869 360.062 C 141.745 358.985,143.667 355.583,152.505 341.231 C 154.350 338.234,155.728 335.663,155.567 335.517 C 155.406 335.372,154.307 334.945,153.125 334.570 C 73.595 309.316,30.671 220.588,60.434 142.969 C 70.789 115.962,91.512 89.755,114.729 74.305 C 118.577 71.744,118.474 72.427,115.779 67.286 C 111.386 58.910,112.771 57.213,125.089 55.874 C 136.218 54.663,136.825 54.743,140.043 57.845 L 141.610 59.354 148.246 57.064 C 170.580 49.358,194.594 46.592,216.602 49.191 M129.356 63.948 C 130.174 64.074,130.986 65.006,133.229 68.398 C 134.790 70.759,136.231 72.792,136.432 72.916 C 136.633 73.040,135.370 71.011,133.626 68.407 C 130.803 64.193,130.336 63.678,129.387 63.730 L 128.320 63.789 129.356 63.948 M124.497 64.305 C 124.251 64.551,126.020 68.359,126.380 68.359 C 126.488 68.359,126.135 67.490,125.597 66.428 L 124.619 64.498 126.274 64.348 L 127.930 64.199 126.335 64.131 C 125.457 64.093,124.630 64.172,124.497 64.305 M128.125 71.875 C 128.776 73.164,129.396 74.219,129.503 74.219 C 129.611 74.219,129.166 73.164,128.516 71.875 C 127.865 70.586,127.245 69.531,127.137 69.531 C 127.030 69.531,127.474 70.586,128.125 71.875 M138.672 76.367 C 139.759 77.979,140.737 79.297,140.844 79.297 C 140.952 79.297,140.150 77.979,139.063 76.367 C 137.975 74.756,136.998 73.438,136.890 73.438 C 136.783 73.438,137.585 74.756,138.672 76.367 M132.031 79.297 C 132.682 80.586,133.302 81.641,133.410 81.641 C 133.517 81.641,133.073 80.586,132.422 79.297 C 131.771 78.008,131.151 76.953,131.043 76.953 C 130.936 76.953,131.381 78.008,132.031 79.297 M144.531 84.961 C 146.045 87.217,147.371 89.063,147.478 89.063 C 147.586 89.063,146.435 87.217,144.922 84.961 C 143.408 82.705,142.082 80.859,141.975 80.859 C 141.867 80.859,143.018 82.705,144.531 84.961 M134.766 84.375 C 135.416 85.664,136.037 86.719,136.144 86.719 C 136.251 86.719,135.807 85.664,135.156 84.375 C 134.506 83.086,133.885 82.031,133.778 82.031 C 133.670 82.031,134.115 83.086,134.766 84.375 M138.281 91.016 C 138.932 92.305,139.552 93.359,139.660 93.359 C 139.767 93.359,139.323 92.305,138.672 91.016 C 138.021 89.727,137.401 88.672,137.293 88.672 C 137.186 88.672,137.631 89.727,138.281 91.016 M152.536 96.680 C 155.283 100.762,157.796 104.365,158.120 104.688 C 158.444 105.010,156.461 101.934,153.714 97.852 C 150.967 93.770,148.454 90.166,148.130 89.844 C 147.806 89.521,149.789 92.598,152.536 96.680 M141.797 97.656 C 142.448 98.945,143.068 100.000,143.175 100.000 C 143.283 100.000,142.838 98.945,142.188 97.656 C 141.537 96.367,140.916 95.313,140.809 95.313 C 140.702 95.313,141.146 96.367,141.797 97.656 M144.727 103.125 C 145.484 104.629,146.191 105.859,146.299 105.859 C 146.406 105.859,145.875 104.629,145.117 103.125 C 144.360 101.621,143.652 100.391,143.545 100.391 C 143.437 100.391,143.969 101.621,144.727 103.125 M160.938 108.984 C 162.238 110.918,163.389 112.500,163.497 112.500 C 163.604 112.500,162.628 110.918,161.328 108.984 C 160.028 107.051,158.876 105.469,158.769 105.469 C 158.661 105.469,159.637 107.051,160.938 108.984 M148.242 109.766 C 149.000 111.270,149.707 112.500,149.815 112.500 C 149.922 112.500,149.390 111.270,148.633 109.766 C 147.875 108.262,147.168 107.031,147.060 107.031 C 146.953 107.031,147.485 108.262,148.242 109.766 M151.172 115.234 C 151.823 116.523,152.443 117.578,152.550 117.578 C 152.658 117.578,152.213 116.523,151.563 115.234 C 150.912 113.945,150.291 112.891,150.184 112.891 C 150.077 112.891,150.521 113.945,151.172 115.234 M166.016 116.406 C 166.891 117.695,167.695 118.750,167.803 118.750 C 167.910 118.750,167.282 117.695,166.406 116.406 C 165.531 115.117,164.727 114.063,164.619 114.063 C 164.512 114.063,165.140 115.117,166.016 116.406 M154.297 121.094 C 154.948 122.383,155.568 123.438,155.675 123.438 C 155.783 123.438,155.338 122.383,154.688 121.094 C 154.037 119.805,153.416 118.750,153.309 118.750 C 153.202 118.750,153.646 119.805,154.297 121.094 M170.703 123.242 C 172.217 125.498,173.543 127.344,173.650 127.344 C 173.758 127.344,172.607 125.498,171.094 123.242 C 169.580 120.986,168.254 119.141,168.147 119.141 C 168.039 119.141,169.190 120.986,170.703 123.242 M157.422 126.953 C 158.073 128.242,158.693 129.297,158.800 129.297 C 158.908 129.297,158.463 128.242,157.813 126.953 C 157.162 125.664,156.541 124.609,156.434 124.609 C 156.327 124.609,156.771 125.664,157.422 126.953 M175.781 130.664 C 176.869 132.275,177.846 133.594,177.953 133.594 C 178.061 133.594,177.259 132.275,176.172 130.664 C 175.085 129.053,174.107 127.734,174.000 127.734 C 173.892 127.734,174.694 129.053,175.781 130.664 M160.742 133.203 C 161.287 134.277,161.820 135.156,161.927 135.156 C 162.035 135.156,161.677 134.277,161.133 133.203 C 160.588 132.129,160.055 131.250,159.948 131.250 C 159.840 131.250,160.198 132.129,160.742 133.203 M179.272 135.706 L 180.457 137.428 177.826 140.071 L 175.195 142.714 177.930 140.222 C 179.434 138.851,180.725 137.691,180.799 137.642 C 180.976 137.528,178.538 133.984,178.283 133.984 C 178.175 133.984,178.621 134.759,179.272 135.706 M163.281 137.891 C 163.932 139.180,164.552 140.234,164.660 140.234 C 164.767 140.234,164.323 139.180,163.672 137.891 C 163.021 136.602,162.401 135.547,162.293 135.547 C 162.186 135.547,162.631 136.602,163.281 137.891 M165.039 140.908 C 165.254 141.113,166.133 141.676,166.992 142.159 C 167.852 142.641,168.203 142.744,167.773 142.387 C 166.901 141.661,164.426 140.324,165.039 140.908 M169.498 143.623 C 171.793 145.358,173.379 146.115,173.669 145.612 C 173.825 145.340,173.810 145.247,173.636 145.405 C 173.461 145.563,172.685 145.310,171.913 144.843 C 171.140 144.375,170.068 143.749,169.531 143.451 L 168.555 142.909 169.498 143.623 " stroke="none" fill="#f9fbfb" fill-rule="evenodd"></path><path id="path3" d="M208.691 48.707 C 209.067 48.805,209.683 48.805,210.059 48.707 C 210.435 48.609,210.127 48.528,209.375 48.528 C 208.623 48.528,208.315 48.609,208.691 48.707 M127.356 64.113 C 127.765 64.395,127.312 64.461,125.781 64.342 C 124.600 64.250,123.854 64.252,124.124 64.347 C 124.393 64.442,124.498 64.708,124.356 64.937 C 124.192 65.203,124.286 65.239,124.615 65.035 C 124.994 64.801,125.064 64.895,124.876 65.386 C 124.702 65.838,124.766 65.965,125.071 65.777 C 125.376 65.588,125.440 65.715,125.266 66.167 C 125.124 66.537,125.170 66.738,125.367 66.616 C 125.712 66.403,126.408 67.856,126.249 68.457 C 126.207 68.618,126.377 68.750,126.628 68.750 C 126.878 68.750,126.981 68.853,126.855 68.978 C 126.730 69.103,126.978 69.556,127.407 69.985 C 127.835 70.413,128.086 71.023,127.964 71.340 C 127.822 71.709,127.905 71.815,128.196 71.636 C 128.501 71.447,128.565 71.575,128.391 72.027 C 128.218 72.478,128.282 72.606,128.586 72.417 C 128.891 72.229,128.955 72.356,128.782 72.808 C 128.629 73.206,128.681 73.381,128.911 73.239 C 129.258 73.025,129.466 73.541,129.343 74.316 C 129.318 74.478,129.483 74.609,129.711 74.609 C 129.938 74.609,130.016 74.785,129.883 75.000 C 129.750 75.215,129.838 75.391,130.078 75.391 C 130.318 75.391,130.406 75.566,130.273 75.781 C 130.141 75.996,130.247 76.172,130.511 76.172 C 130.774 76.172,130.887 76.274,130.762 76.400 C 130.636 76.525,130.884 76.978,131.313 77.407 C 131.741 77.835,131.992 78.445,131.871 78.761 C 131.749 79.078,131.803 79.243,131.990 79.127 C 132.291 78.941,133.348 80.881,133.244 81.429 C 133.221 81.545,133.568 82.006,134.015 82.452 C 134.461 82.898,134.727 83.523,134.605 83.840 C 134.463 84.209,134.546 84.315,134.836 84.136 C 135.141 83.947,135.205 84.075,135.032 84.527 C 134.890 84.896,134.935 85.098,135.133 84.976 C 135.477 84.763,136.174 86.215,136.015 86.816 C 135.972 86.978,136.124 87.109,136.351 87.109 C 136.579 87.109,136.656 87.285,136.523 87.500 C 136.391 87.715,136.497 87.891,136.761 87.891 C 137.024 87.891,137.137 87.993,137.012 88.118 C 136.886 88.244,137.134 88.697,137.563 89.125 C 137.991 89.554,138.242 90.163,138.121 90.480 C 137.979 90.850,138.062 90.956,138.352 90.777 C 138.657 90.588,138.721 90.715,138.547 91.167 C 138.406 91.537,138.451 91.738,138.648 91.616 C 138.993 91.403,139.689 92.856,139.531 93.457 C 139.488 93.618,139.639 93.750,139.867 93.750 C 140.094 93.750,140.172 93.926,140.039 94.141 C 139.906 94.355,140.013 94.531,140.276 94.531 C 140.540 94.531,140.653 94.634,140.527 94.759 C 140.402 94.884,140.650 95.337,141.078 95.766 C 141.507 96.194,141.758 96.804,141.636 97.121 C 141.515 97.438,141.569 97.602,141.756 97.486 C 142.057 97.300,143.114 99.241,143.009 99.788 C 142.987 99.905,143.334 100.365,143.780 100.811 C 144.227 101.258,144.492 101.882,144.371 102.199 C 144.229 102.569,144.312 102.675,144.602 102.495 C 144.907 102.307,144.971 102.434,144.797 102.886 C 144.624 103.338,144.688 103.465,144.993 103.277 C 145.298 103.088,145.361 103.215,145.188 103.667 C 145.046 104.037,145.092 104.238,145.289 104.116 C 145.634 103.903,146.330 105.356,146.171 105.957 C 146.129 106.118,146.299 106.250,146.549 106.250 C 146.800 106.250,146.903 106.353,146.777 106.478 C 146.652 106.603,146.900 107.056,147.328 107.485 C 147.757 107.913,148.008 108.523,147.886 108.840 C 147.744 109.209,147.827 109.315,148.118 109.136 C 148.423 108.947,148.486 109.075,148.313 109.527 C 148.140 109.978,148.203 110.106,148.508 109.917 C 148.813 109.729,148.877 109.856,148.704 110.308 C 148.562 110.677,148.607 110.879,148.804 110.757 C 149.122 110.561,149.592 111.412,149.605 112.207 C 149.607 112.368,149.975 112.865,150.421 113.311 C 150.867 113.758,151.133 114.382,151.011 114.699 C 150.869 115.069,150.952 115.175,151.243 114.995 C 151.548 114.807,151.611 114.934,151.438 115.386 C 151.296 115.755,151.342 115.957,151.539 115.835 C 151.884 115.622,152.580 117.075,152.421 117.676 C 152.379 117.837,152.549 117.969,152.799 117.969 C 153.050 117.969,153.153 118.071,153.027 118.197 C 152.902 118.322,153.150 118.775,153.578 119.203 C 154.007 119.632,154.258 120.241,154.136 120.558 C 153.994 120.928,154.077 121.034,154.368 120.855 C 154.673 120.666,154.736 120.794,154.563 121.245 C 154.390 121.697,154.453 121.824,154.758 121.636 C 155.063 121.447,155.127 121.575,154.954 122.027 C 154.801 122.425,154.853 122.600,155.083 122.458 C 155.430 122.243,155.637 122.760,155.515 123.535 C 155.490 123.696,155.674 123.828,155.924 123.828 C 156.175 123.828,156.278 123.931,156.152 124.056 C 156.027 124.181,156.275 124.634,156.703 125.063 C 157.132 125.491,157.383 126.101,157.261 126.418 C 157.119 126.788,157.202 126.894,157.493 126.714 C 157.798 126.526,157.861 126.653,157.688 127.105 C 157.515 127.556,157.578 127.684,157.883 127.495 C 158.188 127.307,158.252 127.434,158.079 127.886 C 157.926 128.284,157.978 128.459,158.208 128.318 C 158.555 128.103,158.762 128.619,158.640 129.395 C 158.615 129.556,158.780 129.688,159.007 129.688 C 159.235 129.688,159.312 129.863,159.180 130.078 C 159.047 130.293,159.154 130.469,159.417 130.469 C 159.680 130.469,159.793 130.571,159.668 130.697 C 159.543 130.822,159.791 131.275,160.219 131.703 C 160.647 132.132,160.898 132.741,160.777 133.058 C 160.655 133.375,160.717 133.535,160.914 133.413 C 161.231 133.217,161.701 134.069,161.714 134.863 C 161.717 135.024,162.084 135.521,162.530 135.968 C 162.977 136.414,163.242 137.038,163.121 137.355 C 162.979 137.725,163.062 137.831,163.352 137.652 C 163.657 137.463,163.721 137.590,163.547 138.042 C 163.406 138.412,163.451 138.613,163.648 138.491 C 163.985 138.283,164.690 139.722,164.538 140.308 C 164.500 140.456,164.820 140.689,165.248 140.825 C 165.676 140.961,165.927 141.233,165.806 141.430 C 165.684 141.627,165.825 141.696,166.118 141.583 C 166.412 141.470,167.124 141.815,167.701 142.350 C 168.278 142.885,168.750 143.233,168.750 143.123 C 168.750 143.014,169.268 143.230,169.901 143.604 C 170.533 143.978,170.964 144.425,170.857 144.598 C 170.750 144.771,170.964 144.797,171.333 144.656 C 171.837 144.462,171.923 144.536,171.681 144.953 C 171.504 145.258,171.505 145.375,171.684 145.213 C 171.862 145.052,172.439 145.202,172.966 145.547 C 173.493 145.892,173.804 145.981,173.658 145.744 C 173.511 145.507,173.588 145.313,173.828 145.313 C 174.068 145.313,174.153 145.132,174.017 144.911 C 173.880 144.690,174.353 143.955,175.068 143.278 C 175.783 142.601,176.104 142.191,175.781 142.368 C 175.459 142.545,176.060 141.793,177.116 140.698 C 178.173 139.603,179.172 138.790,179.336 138.891 C 179.499 138.992,179.761 138.869,179.916 138.618 C 180.104 138.315,180.014 138.256,179.650 138.445 C 179.324 138.615,179.353 138.520,179.722 138.213 C 180.349 137.689,180.614 136.192,180.013 136.564 C 179.710 136.751,179.522 136.160,179.651 135.420 C 179.682 135.243,179.562 135.188,179.385 135.297 C 179.208 135.407,178.839 135.138,178.565 134.699 C 178.157 134.046,178.160 133.960,178.581 134.220 C 178.864 134.395,178.437 133.880,177.634 133.076 C 176.282 131.725,175.988 131.189,176.135 130.342 C 176.166 130.165,176.011 130.131,175.791 130.267 C 175.425 130.494,175.215 129.968,175.354 129.170 C 175.385 128.993,175.265 128.938,175.088 129.047 C 174.911 129.157,174.542 128.888,174.268 128.449 C 173.860 127.796,173.863 127.710,174.284 127.970 C 174.567 128.145,174.141 127.630,173.337 126.826 C 171.985 125.475,171.691 124.939,171.838 124.092 C 171.869 123.915,171.714 123.881,171.494 124.017 C 171.128 124.244,170.919 123.718,171.057 122.920 C 171.088 122.743,170.933 122.710,170.713 122.846 C 170.347 123.072,170.137 122.546,170.276 121.748 C 170.307 121.571,170.152 121.538,169.932 121.674 C 169.565 121.900,169.356 121.374,169.495 120.576 C 169.525 120.399,169.406 120.344,169.228 120.454 C 169.051 120.563,168.682 120.294,168.409 119.856 C 168.000 119.201,168.003 119.114,168.428 119.365 C 168.713 119.534,168.361 119.118,167.646 118.441 C 166.876 117.711,166.463 117.021,166.632 116.747 C 166.811 116.457,166.750 116.389,166.467 116.564 C 166.057 116.817,165.834 116.331,165.979 115.498 C 166.010 115.321,165.890 115.266,165.713 115.375 C 165.536 115.485,165.167 115.216,164.893 114.778 C 164.485 114.123,164.488 114.029,164.913 114.251 C 165.197 114.399,164.990 114.139,164.453 113.672 C 163.916 113.205,163.739 112.963,164.059 113.133 C 164.380 113.304,163.984 112.786,163.180 111.982 C 161.829 110.631,161.535 110.095,161.682 109.248 C 161.713 109.071,161.558 109.038,161.338 109.174 C 160.972 109.400,160.762 108.874,160.901 108.076 C 160.932 107.899,160.777 107.866,160.557 108.002 C 160.190 108.228,159.981 107.702,160.120 106.905 C 160.150 106.727,160.031 106.672,159.853 106.782 C 159.676 106.891,159.307 106.622,159.034 106.184 C 158.625 105.529,158.628 105.442,159.053 105.694 C 159.338 105.862,158.986 105.446,158.271 104.769 C 157.501 104.039,157.088 103.349,157.257 103.075 C 157.436 102.785,157.375 102.717,157.092 102.892 C 156.682 103.145,156.459 102.659,156.604 101.826 C 156.635 101.649,156.480 101.616,156.260 101.752 C 155.894 101.978,155.684 101.452,155.823 100.655 C 155.854 100.477,155.699 100.444,155.478 100.580 C 155.112 100.806,154.903 100.280,155.042 99.483 C 155.072 99.306,154.917 99.272,154.697 99.408 C 154.331 99.634,154.122 99.109,154.260 98.311 C 154.291 98.134,154.136 98.100,153.916 98.236 C 153.696 98.372,153.494 98.297,153.467 98.070 C 153.440 97.842,153.396 97.495,153.369 97.298 C 153.342 97.101,153.160 96.794,152.965 96.615 C 152.755 96.423,152.729 96.530,152.901 96.875 C 153.061 97.197,152.830 97.021,152.386 96.484 C 151.603 95.536,151.410 95.070,151.526 94.405 C 151.557 94.227,151.402 94.194,151.182 94.330 C 150.815 94.556,150.606 94.030,150.745 93.233 C 150.775 93.056,150.620 93.022,150.400 93.158 C 150.034 93.384,149.825 92.859,149.963 92.061 C 149.994 91.884,149.839 91.850,149.619 91.986 C 149.253 92.212,149.044 91.687,149.182 90.889 C 149.213 90.712,149.093 90.657,148.916 90.766 C 148.739 90.876,148.370 90.607,148.096 90.168 C 147.687 89.513,147.691 89.426,148.116 89.678 C 148.400 89.846,148.048 89.430,147.334 88.753 C 146.564 88.024,146.151 87.333,146.320 87.060 C 146.499 86.770,146.437 86.702,146.154 86.877 C 145.745 87.130,145.522 86.643,145.667 85.811 C 145.697 85.634,145.542 85.600,145.322 85.736 C 144.956 85.962,144.747 85.437,144.885 84.639 C 144.916 84.462,144.761 84.428,144.541 84.564 C 144.175 84.791,143.965 84.265,144.104 83.467 C 144.135 83.290,143.980 83.256,143.760 83.392 C 143.394 83.619,143.184 83.093,143.323 82.295 C 143.354 82.118,143.234 82.063,143.057 82.172 C 142.879 82.282,142.511 82.013,142.237 81.574 C 141.828 80.920,141.832 80.826,142.256 81.048 C 142.541 81.196,142.334 80.955,141.797 80.511 C 141.260 80.068,140.944 79.701,141.096 79.696 C 141.247 79.691,140.930 79.247,140.391 78.708 C 139.850 78.167,139.535 77.527,139.688 77.280 C 139.858 77.004,139.792 76.939,139.513 77.111 C 139.104 77.364,138.881 76.877,139.026 76.045 C 139.057 75.868,138.902 75.835,138.682 75.971 C 138.315 76.197,138.106 75.671,138.245 74.873 C 138.275 74.696,138.156 74.641,137.978 74.750 C 137.801 74.860,137.432 74.591,137.159 74.153 C 136.751 73.499,136.753 73.413,137.175 73.673 C 137.458 73.848,137.031 73.333,136.227 72.529 C 134.876 71.178,134.582 70.642,134.729 69.795 C 134.760 69.618,134.605 69.585,134.385 69.721 C 134.019 69.947,133.809 69.421,133.948 68.623 C 133.979 68.446,133.824 68.413,133.603 68.549 C 133.237 68.775,133.028 68.249,133.167 67.451 C 133.197 67.274,133.042 67.241,132.822 67.377 C 132.456 67.603,132.247 67.077,132.385 66.280 C 132.416 66.102,132.261 66.069,132.041 66.205 C 131.675 66.431,131.465 65.905,131.604 65.108 C 131.635 64.931,131.480 64.897,131.260 65.033 C 130.920 65.243,130.734 64.868,130.777 64.063 C 130.783 63.955,129.887 63.833,128.785 63.791 C 127.330 63.736,126.939 63.824,127.356 64.113 M303.125 89.561 C 303.125 89.620,304.487 90.982,306.152 92.588 L 309.180 95.508 306.260 92.480 C 303.548 89.669,303.125 89.275,303.125 89.561 M51.263 184.375 C 51.263 185.127,51.343 185.435,51.441 185.059 C 51.539 184.683,51.539 184.067,51.441 183.691 C 51.343 183.315,51.263 183.623,51.263 184.375 M348.145 185.742 C 348.150 186.602,348.230 186.907,348.323 186.421 C 348.417 185.935,348.413 185.232,348.315 184.859 C 348.217 184.485,348.141 184.883,348.145 185.742 M50.924 195.508 C 50.925 197.656,50.991 198.485,51.070 197.350 C 51.149 196.215,51.148 194.457,51.068 193.444 C 50.988 192.431,50.923 193.359,50.924 195.508 M210.475 259.473 L 205.222 268.555 210.912 271.521 C 214.041 273.152,217.744 275.188,219.141 276.046 C 222.574 278.153,223.581 278.673,223.277 278.182 C 223.033 277.786,232.580 261.017,233.356 260.481 C 234.021 260.020,217.372 250.391,215.912 250.391 C 215.811 250.391,213.364 254.478,210.475 259.473 M236.328 262.251 C 236.328 262.359,236.855 262.822,237.500 263.281 C 238.145 263.740,238.672 264.028,238.672 263.920 C 238.672 263.813,238.145 263.350,237.500 262.891 C 236.855 262.432,236.328 262.144,236.328 262.251 M240.625 265.340 C 240.625 265.429,241.504 266.244,242.578 267.150 C 243.652 268.055,244.524 268.654,244.515 268.480 C 244.498 268.162,240.625 265.036,240.625 265.340 M225.977 280.004 C 226.191 280.235,227.510 281.155,228.906 282.047 C 230.303 282.939,231.182 283.406,230.859 283.085 C 230.166 282.394,225.406 279.391,225.977 280.004 M236.133 282.422 C 235.800 283.066,235.615 283.594,235.722 283.594 C 235.830 283.594,236.190 283.066,236.523 282.422 C 236.857 281.777,237.042 281.250,236.934 281.250 C 236.827 281.250,236.466 281.777,236.133 282.422 M307.983 295.020 L 306.836 296.289 308.105 295.142 C 308.804 294.511,309.375 293.939,309.375 293.872 C 309.375 293.570,309.053 293.836,307.983 295.020 M301.343 301.660 L 300.195 302.930 301.465 301.782 C 302.163 301.151,302.734 300.580,302.734 300.513 C 302.734 300.211,302.412 300.477,301.343 301.660 " stroke="none" fill="#cbd6e0" fill-rule="evenodd"></path><path id="path4" d="M85.465 130.368 C 86.816 130.444,88.925 130.444,90.152 130.366 C 91.379 130.289,90.273 130.226,87.695 130.227 C 85.117 130.228,84.113 130.291,85.465 130.368 M202.832 136.988 C 203.208 137.086,203.823 137.086,204.199 136.988 C 204.575 136.890,204.268 136.809,203.516 136.809 C 202.764 136.809,202.456 136.890,202.832 136.988 M99.844 139.779 C 99.569 140.225,102.292 141.485,102.822 141.157 C 103.060 141.010,103.135 141.075,102.992 141.305 C 102.705 141.769,103.788 142.307,104.332 141.970 C 104.528 141.850,104.688 141.947,104.688 142.188 C 104.688 142.428,104.863 142.516,105.078 142.383 C 105.293 142.250,105.469 142.316,105.469 142.529 C 105.469 142.917,106.970 143.582,107.520 143.437 C 107.681 143.394,107.813 143.546,107.813 143.773 C 107.813 144.001,107.988 144.078,108.203 143.945 C 108.418 143.813,108.594 143.919,108.594 144.183 C 108.594 144.446,108.703 144.553,108.836 144.420 C 108.969 144.287,109.343 144.443,109.667 144.768 C 109.992 145.092,110.507 145.261,110.813 145.144 C 111.119 145.027,111.273 145.086,111.155 145.276 C 110.881 145.720,112.049 146.177,112.596 145.839 C 112.860 145.676,112.895 145.771,112.692 146.100 C 112.457 146.479,112.551 146.548,113.042 146.360 C 113.411 146.218,113.616 146.258,113.499 146.448 C 113.242 146.864,114.377 147.359,114.879 147.049 C 115.074 146.928,115.234 147.025,115.234 147.266 C 115.234 147.506,115.410 147.594,115.625 147.461 C 115.840 147.328,116.016 147.416,116.016 147.656 C 116.016 147.896,116.191 147.984,116.406 147.852 C 116.621 147.719,116.797 147.826,116.797 148.089 C 116.797 148.352,116.906 148.459,117.039 148.326 C 117.172 148.193,117.546 148.349,117.870 148.674 C 118.195 148.998,118.710 149.168,119.016 149.050 C 119.368 148.915,119.469 149.003,119.292 149.290 C 119.104 149.595,119.231 149.658,119.683 149.485 C 120.051 149.343,120.262 149.376,120.150 149.557 C 119.894 149.970,121.805 150.871,122.295 150.568 C 122.494 150.445,122.656 150.541,122.656 150.781 C 122.656 151.021,122.832 151.109,123.047 150.977 C 123.262 150.844,123.438 150.932,123.438 151.172 C 123.438 151.412,123.613 151.500,123.828 151.367 C 124.043 151.234,124.219 151.322,124.219 151.563 C 124.219 151.803,124.395 151.891,124.609 151.758 C 124.824 151.625,125.000 151.713,125.000 151.953 C 125.000 152.193,125.176 152.281,125.391 152.148 C 125.605 152.016,125.781 152.104,125.781 152.344 C 125.781 152.584,125.957 152.672,126.172 152.539 C 126.387 152.406,126.563 152.494,126.563 152.734 C 126.563 152.975,126.738 153.062,126.953 152.930 C 127.168 152.797,127.344 152.885,127.344 153.125 C 127.344 153.365,127.520 153.453,127.734 153.320 C 127.949 153.188,128.125 153.275,128.125 153.516 C 128.125 153.756,128.301 153.844,128.516 153.711 C 128.730 153.578,128.906 153.685,128.906 153.948 C 128.906 154.212,129.015 154.318,129.148 154.185 C 129.281 154.052,129.655 154.209,129.980 154.533 C 130.304 154.858,130.820 155.027,131.125 154.910 C 131.478 154.775,131.579 154.862,131.402 155.149 C 131.213 155.454,131.340 155.518,131.792 155.344 C 132.161 155.203,132.366 155.242,132.249 155.432 C 131.992 155.849,133.127 156.343,133.629 156.033 C 133.824 155.912,133.984 156.010,133.984 156.250 C 133.984 156.490,134.160 156.578,134.375 156.445 C 134.590 156.313,134.766 156.400,134.766 156.641 C 134.766 156.881,134.941 156.969,135.156 156.836 C 135.371 156.703,135.547 156.791,135.547 157.031 C 135.547 157.271,135.723 157.359,135.938 157.227 C 136.152 157.094,136.328 157.182,136.328 157.422 C 136.328 157.662,136.504 157.750,136.719 157.617 C 136.934 157.484,137.109 157.529,137.109 157.717 C 137.109 158.231,139.835 159.427,140.322 159.126 C 140.560 158.979,140.635 159.044,140.492 159.274 C 140.205 159.738,141.288 160.276,141.832 159.939 C 142.028 159.818,142.188 159.916,142.188 160.156 C 142.188 160.396,142.363 160.484,142.578 160.352 C 142.793 160.219,142.969 160.307,142.969 160.547 C 142.969 160.787,143.145 160.875,143.359 160.742 C 143.574 160.609,143.750 160.697,143.750 160.938 C 143.750 161.178,143.926 161.266,144.141 161.133 C 144.355 161.000,144.531 161.088,144.531 161.328 C 144.531 161.568,144.707 161.656,144.922 161.523 C 145.137 161.391,145.313 161.479,145.313 161.719 C 145.313 161.959,145.488 162.047,145.703 161.914 C 145.918 161.781,146.094 161.826,146.094 162.014 C 146.094 162.528,148.819 163.724,149.306 163.423 C 149.579 163.254,149.616 163.345,149.410 163.678 C 149.176 164.057,149.270 164.126,149.761 163.938 C 150.130 163.797,150.335 163.836,150.218 164.026 C 149.960 164.443,151.096 164.937,151.598 164.627 C 151.793 164.506,151.953 164.604,151.953 164.844 C 151.953 165.084,152.129 165.172,152.344 165.039 C 152.559 164.906,152.734 164.994,152.734 165.234 C 152.734 165.475,152.910 165.562,153.125 165.430 C 153.340 165.297,153.516 165.385,153.516 165.625 C 153.516 165.865,153.691 165.953,153.906 165.820 C 154.121 165.688,154.297 165.794,154.297 166.058 C 154.297 166.321,154.406 166.428,154.539 166.295 C 154.672 166.162,155.046 166.318,155.370 166.643 C 155.695 166.967,156.210 167.136,156.516 167.019 C 156.868 166.884,156.969 166.972,156.792 167.258 C 156.604 167.563,156.731 167.627,157.183 167.454 C 157.634 167.280,157.762 167.344,157.573 167.649 C 157.385 167.954,157.512 168.018,157.964 167.844 C 158.333 167.703,158.538 167.742,158.421 167.932 C 158.164 168.349,159.299 168.843,159.801 168.533 C 159.996 168.412,160.156 168.510,160.156 168.750 C 160.156 168.990,160.332 169.078,160.547 168.945 C 160.762 168.813,160.938 168.900,160.938 169.141 C 160.938 169.381,161.113 169.469,161.328 169.336 C 161.543 169.203,161.719 169.291,161.719 169.531 C 161.719 169.771,161.895 169.859,162.109 169.727 C 162.324 169.594,162.500 169.682,162.500 169.922 C 162.500 170.162,162.676 170.250,162.891 170.117 C 163.105 169.984,163.281 170.072,163.281 170.313 C 163.281 170.553,163.457 170.641,163.672 170.508 C 163.887 170.375,164.063 170.482,164.063 170.745 C 164.062 171.009,164.171 171.115,164.304 170.982 C 164.437 170.849,164.812 171.006,165.136 171.330 C 165.460 171.655,165.976 171.824,166.282 171.707 C 166.634 171.571,166.735 171.659,166.558 171.946 C 166.369 172.251,166.497 172.315,166.948 172.141 C 167.347 171.988,167.522 172.041,167.380 172.270 C 167.154 172.636,167.323 172.722,168.457 172.813 C 168.726 172.834,169.184 173.077,169.475 173.353 C 169.771 173.634,170.352 173.744,170.793 173.604 C 171.368 173.422,171.499 173.488,171.277 173.848 C 171.055 174.208,171.201 174.282,171.814 174.122 C 172.277 174.000,172.656 174.081,172.656 174.301 C 172.656 174.521,173.008 174.608,173.438 174.496 C 173.926 174.369,174.124 174.446,173.966 174.703 C 173.798 174.975,174.073 175.023,174.779 174.846 C 175.553 174.652,175.768 174.706,175.560 175.041 C 175.353 175.377,175.568 175.431,176.342 175.237 C 177.115 175.042,177.330 175.096,177.123 175.432 C 176.915 175.768,177.131 175.821,177.904 175.627 C 178.678 175.433,178.893 175.487,178.685 175.823 C 178.478 176.158,178.693 176.212,179.467 176.018 C 180.245 175.822,180.456 175.876,180.245 176.218 C 180.042 176.546,180.207 176.620,180.798 176.465 C 181.262 176.344,181.641 176.425,181.641 176.645 C 181.641 176.864,181.992 176.952,182.422 176.840 C 182.852 176.728,183.203 176.814,183.203 177.032 C 183.203 177.263,183.624 177.323,184.212 177.175 C 184.920 176.997,185.139 177.056,184.945 177.370 C 184.746 177.691,185.042 177.744,185.986 177.557 C 186.961 177.364,187.152 177.403,186.719 177.705 C 186.211 178.059,186.220 178.114,186.793 178.119 C 188.029 178.130,187.862 177.475,186.458 176.805 C 185.689 176.439,184.972 176.225,184.866 176.332 C 184.760 176.438,184.407 176.260,184.083 175.935 C 183.758 175.611,183.252 175.438,182.957 175.551 C 182.663 175.664,182.422 175.576,182.422 175.355 C 182.422 175.135,182.246 175.063,182.031 175.195 C 181.816 175.328,181.641 175.232,181.641 174.981 C 181.641 174.730,181.369 174.630,181.034 174.758 C 180.701 174.886,180.524 174.836,180.642 174.646 C 180.759 174.456,180.583 174.196,180.251 174.069 C 179.853 173.916,179.732 174.002,179.896 174.321 C 180.034 174.587,179.764 174.365,179.297 173.828 C 178.830 173.291,178.566 173.115,178.710 173.438 C 178.854 173.760,178.448 173.415,177.807 172.671 C 177.167 171.927,176.141 170.897,175.528 170.382 C 174.915 169.867,174.678 169.568,175.000 169.718 C 175.322 169.867,175.146 169.608,174.609 169.141 C 174.072 168.674,173.896 168.408,174.219 168.550 C 174.606 168.720,174.575 168.620,174.127 168.252 C 173.755 167.946,173.564 167.582,173.704 167.442 C 173.844 167.302,173.743 167.188,173.480 167.188 C 173.216 167.188,173.109 167.012,173.242 166.797 C 173.375 166.582,173.303 166.406,173.082 166.406 C 172.861 166.406,172.793 166.114,172.930 165.756 C 173.108 165.294,173.035 165.195,172.681 165.415 C 172.307 165.646,172.252 165.502,172.461 164.844 C 172.664 164.205,172.610 164.045,172.266 164.258 C 171.925 164.468,171.866 164.317,172.055 163.721 C 172.200 163.262,172.148 162.891,171.938 162.891 C 171.729 162.891,171.649 162.539,171.762 162.109 C 171.904 161.566,171.774 161.328,171.335 161.328 C 170.987 161.328,170.703 161.189,170.703 161.019 C 170.703 160.608,167.234 159.691,166.769 159.978 C 166.570 160.101,166.406 160.004,166.406 159.762 C 166.406 159.491,166.087 159.424,165.576 159.586 C 164.968 159.779,164.827 159.718,165.048 159.360 C 165.276 158.992,165.085 158.937,164.283 159.138 C 163.528 159.328,163.297 159.275,163.493 158.958 C 163.686 158.645,163.505 158.594,162.891 158.789 C 162.236 158.997,162.089 158.942,162.317 158.574 C 162.539 158.214,162.393 158.140,161.780 158.300 C 161.317 158.421,160.938 158.349,160.938 158.140 C 160.938 157.930,160.566 157.878,160.107 158.023 C 159.496 158.217,159.358 158.157,159.582 157.793 C 159.805 157.433,159.659 157.359,159.045 157.519 C 158.582 157.640,158.203 157.568,158.203 157.359 C 158.203 157.149,157.831 157.097,157.373 157.242 C 156.761 157.436,156.623 157.375,156.848 157.012 C 157.070 156.652,156.924 156.577,156.311 156.738 C 155.848 156.859,155.469 156.780,155.469 156.562 C 155.469 156.345,155.205 156.268,154.883 156.391 C 154.561 156.515,154.297 156.434,154.297 156.211 C 154.297 155.977,153.949 155.917,153.467 156.070 C 152.855 156.264,152.717 156.204,152.942 155.840 C 153.164 155.480,153.018 155.406,152.405 155.566 C 151.942 155.687,151.563 155.615,151.563 155.406 C 151.563 155.196,151.191 155.143,150.732 155.289 C 150.121 155.483,149.983 155.422,150.207 155.058 C 150.430 154.699,150.284 154.624,149.670 154.785 C 149.207 154.906,148.828 154.827,148.828 154.609 C 148.828 154.391,148.564 154.314,148.242 154.438 C 147.920 154.562,147.656 154.481,147.656 154.258 C 147.656 154.023,147.308 153.964,146.826 154.117 C 146.215 154.311,146.076 154.250,146.301 153.887 C 146.524 153.527,146.378 153.452,145.764 153.613 C 145.301 153.734,144.922 153.662,144.922 153.453 C 144.922 153.243,144.550 153.190,144.092 153.336 C 143.496 153.525,143.344 153.466,143.555 153.125 C 143.768 152.780,143.607 152.727,142.969 152.930 C 142.314 153.138,142.168 153.083,142.395 152.715 C 142.617 152.355,142.471 152.281,141.858 152.441 C 141.395 152.562,141.016 152.483,141.016 152.265 C 141.016 152.048,140.752 151.971,140.430 152.094 C 140.107 152.218,139.844 152.130,139.844 151.899 C 139.844 151.668,139.580 151.580,139.258 151.704 C 138.936 151.827,138.672 151.746,138.672 151.524 C 138.672 151.289,138.324 151.230,137.842 151.383 C 137.230 151.577,137.092 151.516,137.317 151.152 C 137.539 150.792,137.393 150.718,136.780 150.878 C 136.317 151.000,135.938 150.921,135.938 150.703 C 135.938 150.485,135.674 150.408,135.352 150.532 C 135.029 150.656,134.766 150.575,134.766 150.352 C 134.766 150.117,134.417 150.058,133.935 150.211 C 133.339 150.400,133.188 150.341,133.398 150.000 C 133.611 149.655,133.451 149.602,132.813 149.805 C 132.174 150.007,132.014 149.954,132.227 149.609 C 132.437 149.269,132.286 149.209,131.690 149.399 C 131.165 149.565,130.859 149.493,130.859 149.203 C 130.859 148.951,130.596 148.846,130.273 148.969 C 129.951 149.093,129.688 149.005,129.688 148.774 C 129.688 148.543,129.424 148.455,129.102 148.579 C 128.779 148.702,128.516 148.613,128.516 148.380 C 128.516 148.147,128.164 148.048,127.734 148.160 C 127.241 148.289,127.047 148.211,127.209 147.949 C 127.374 147.683,127.163 147.612,126.624 147.753 C 126.160 147.875,125.781 147.796,125.781 147.578 C 125.781 147.360,125.518 147.283,125.195 147.407 C 124.873 147.531,124.609 147.443,124.609 147.212 C 124.609 146.980,124.346 146.893,124.023 147.016 C 123.701 147.140,123.438 147.059,123.438 146.836 C 123.438 146.602,123.089 146.542,122.607 146.695 C 121.992 146.890,121.857 146.829,122.085 146.460 C 122.305 146.105,122.206 146.033,121.744 146.210 C 121.384 146.349,121.094 146.271,121.094 146.036 C 121.094 145.803,120.742 145.704,120.312 145.816 C 119.820 145.945,119.625 145.867,119.787 145.605 C 119.952 145.339,119.741 145.269,119.202 145.410 C 118.738 145.531,118.359 145.452,118.359 145.234 C 118.359 145.016,118.096 144.939,117.773 145.063 C 117.451 145.187,117.188 145.099,117.188 144.868 C 117.188 144.637,116.935 144.544,116.627 144.663 C 116.318 144.781,116.003 144.689,115.926 144.457 C 115.849 144.226,115.239 144.016,114.572 143.991 C 113.904 143.966,113.456 143.786,113.576 143.591 C 113.696 143.396,113.415 143.335,112.952 143.457 C 112.488 143.578,112.109 143.499,112.109 143.281 C 112.109 143.063,111.846 142.986,111.523 143.110 C 111.201 143.234,110.938 143.146,110.938 142.915 C 110.938 142.684,110.674 142.596,110.352 142.719 C 110.029 142.843,109.766 142.755,109.766 142.524 C 109.766 142.293,109.502 142.205,109.180 142.329 C 108.857 142.452,108.594 142.411,108.594 142.237 C 108.594 141.805,105.546 140.922,105.070 141.216 C 104.860 141.346,104.688 141.247,104.688 140.997 C 104.688 140.746,104.424 140.643,104.102 140.766 C 103.779 140.890,103.516 140.849,103.516 140.675 C 103.516 140.071,100.169 139.255,99.844 139.779 M187.500 144.554 C 187.500 144.782,187.324 144.859,187.109 144.727 C 186.895 144.594,186.719 144.671,186.719 144.899 C 186.719 145.126,186.566 145.269,186.380 145.215 C 186.193 145.161,185.710 145.477,185.306 145.917 C 184.901 146.357,184.738 146.445,184.944 146.112 C 185.149 145.780,184.666 146.114,183.870 146.854 C 182.360 148.258,181.926 148.914,183.105 148.009 C 183.481 147.720,183.119 148.158,182.299 148.981 C 181.463 149.821,180.900 150.715,181.017 151.020 C 181.132 151.318,181.036 151.563,180.805 151.563 C 180.574 151.563,180.490 151.835,180.618 152.169 C 180.767 152.559,180.692 152.677,180.407 152.501 C 180.096 152.309,180.044 152.545,180.232 153.295 C 180.379 153.882,180.350 154.269,180.166 154.156 C 179.982 154.042,179.831 155.336,179.831 157.031 C 179.831 158.815,179.983 160.020,180.192 159.891 C 180.398 159.763,180.439 160.024,180.289 160.498 C 180.136 160.980,180.195 161.328,180.430 161.328 C 180.653 161.328,180.734 161.590,180.611 161.911 C 180.484 162.243,180.656 162.596,181.012 162.733 C 181.355 162.865,181.544 163.121,181.432 163.303 C 181.320 163.484,181.590 163.826,182.031 164.063 C 182.473 164.299,182.729 164.664,182.599 164.873 C 182.470 165.082,182.509 165.205,182.686 165.146 C 182.863 165.087,183.403 165.435,183.887 165.918 C 184.370 166.401,184.941 166.797,185.156 166.797 C 185.371 166.797,185.535 166.401,185.519 165.918 C 185.493 165.082,185.476 165.077,185.167 165.820 C 184.962 166.312,184.864 165.407,184.901 163.381 C 184.934 161.609,185.115 160.159,185.303 160.158 C 185.491 160.157,185.539 159.629,185.410 158.984 C 185.263 158.250,185.336 157.813,185.605 157.813 C 185.876 157.813,185.947 157.372,185.797 156.621 C 185.631 155.794,185.692 155.513,185.996 155.700 C 186.295 155.885,186.376 155.584,186.253 154.743 C 186.154 154.068,186.240 153.516,186.445 153.516 C 186.649 153.516,186.711 152.989,186.582 152.344 C 186.437 151.619,186.509 151.172,186.771 151.172 C 187.027 151.172,187.097 150.787,186.949 150.195 C 186.795 149.583,186.869 149.219,187.147 149.219 C 187.399 149.219,187.503 148.880,187.387 148.437 C 187.257 147.940,187.335 147.750,187.603 147.915 C 187.869 148.080,187.932 147.936,187.774 147.525 C 187.637 147.167,187.713 146.875,187.945 146.875 C 188.176 146.875,188.260 146.602,188.132 146.269 C 188.004 145.935,188.055 145.759,188.245 145.876 C 188.435 145.993,188.702 145.797,188.839 145.439 C 188.977 145.082,188.863 144.646,188.587 144.471 C 187.897 144.033,187.500 144.063,187.500 144.554 M202.929 145.705 C 202.796 145.920,202.232 145.982,201.676 145.843 C 200.900 145.648,200.739 145.709,200.982 146.103 C 201.212 146.475,201.120 146.548,200.650 146.368 C 200.293 146.231,200.000 146.299,200.000 146.520 C 200.000 146.740,199.824 146.812,199.609 146.680 C 199.395 146.547,199.219 146.635,199.219 146.875 C 199.219 147.115,199.070 147.220,198.888 147.107 C 198.706 146.995,198.047 147.451,197.423 148.121 C 196.799 148.791,196.553 149.211,196.875 149.055 C 197.239 148.878,197.205 148.980,196.783 149.326 C 196.411 149.632,196.220 149.996,196.360 150.136 C 196.500 150.276,196.399 150.391,196.136 150.391 C 195.872 150.391,195.766 150.566,195.898 150.781 C 196.031 150.996,195.935 151.172,195.684 151.172 C 195.434 151.172,195.330 151.436,195.454 151.758 C 195.577 152.080,195.489 152.344,195.258 152.344 C 195.004 152.344,194.934 152.731,195.082 153.320 C 195.236 153.931,195.162 154.297,194.885 154.297 C 194.617 154.297,194.509 154.752,194.612 155.448 C 194.710 156.118,194.625 156.503,194.408 156.369 C 194.189 156.234,194.110 156.645,194.216 157.366 C 194.315 158.041,194.230 158.594,194.027 158.594 C 193.825 158.594,193.743 159.033,193.846 159.570 C 193.948 160.107,193.881 160.547,193.696 160.547 C 193.511 160.547,193.359 161.260,193.359 162.132 C 193.359 163.192,193.503 163.629,193.792 163.451 C 194.094 163.264,194.140 163.566,193.945 164.453 C 193.737 165.401,193.787 165.649,194.141 165.430 C 194.485 165.217,194.539 165.377,194.336 166.016 C 194.128 166.670,194.183 166.817,194.550 166.590 C 194.880 166.386,194.945 166.443,194.748 166.763 C 194.576 167.040,194.755 167.485,195.176 167.828 C 195.573 168.152,195.635 168.293,195.313 168.142 C 194.990 167.990,195.258 168.372,195.907 168.991 C 196.557 169.611,197.688 170.732,198.422 171.484 C 199.156 172.236,199.519 172.500,199.230 172.070 C 198.941 171.641,199.449 172.124,200.359 173.145 C 201.269 174.165,202.174 175.000,202.369 175.000 C 202.564 175.000,203.365 175.659,204.149 176.465 C 204.933 177.271,205.340 177.578,205.054 177.148 C 204.768 176.719,205.459 177.334,206.590 178.516 C 207.720 179.697,208.520 180.400,208.367 180.078 C 208.215 179.756,208.928 180.371,209.953 181.445 C 210.978 182.520,211.662 183.127,211.475 182.795 C 211.287 182.463,211.633 182.771,212.245 183.478 C 212.856 184.186,213.543 184.650,213.770 184.510 C 213.997 184.369,214.070 184.437,213.932 184.661 C 213.794 184.885,213.976 185.307,214.337 185.600 C 214.901 186.058,214.949 186.050,214.672 185.547 C 214.496 185.225,215.184 185.840,216.202 186.914 C 217.220 187.988,217.837 188.516,217.571 188.086 C 217.306 187.656,218.005 188.271,219.123 189.453 C 220.242 190.635,221.036 191.338,220.888 191.016 C 220.741 190.693,221.537 191.396,222.658 192.578 C 223.779 193.760,224.471 194.375,224.196 193.945 C 223.922 193.516,224.712 194.219,225.953 195.508 C 227.194 196.797,227.985 197.500,227.711 197.070 C 227.437 196.641,228.165 197.270,229.329 198.469 C 230.493 199.669,231.270 200.364,231.055 200.014 C 230.840 199.664,231.600 200.353,232.743 201.545 C 233.887 202.736,234.693 203.447,234.533 203.125 C 234.374 202.803,235.109 203.418,236.165 204.492 C 237.222 205.566,238.032 206.577,237.965 206.738 C 237.899 206.899,238.025 207.031,238.246 207.031 C 238.467 207.031,238.535 207.324,238.398 207.681 C 238.230 208.118,238.298 208.239,238.605 208.049 C 238.922 207.853,239.063 208.200,239.063 209.180 C 239.063 209.957,238.905 210.496,238.714 210.377 C 238.522 210.259,238.256 210.556,238.123 211.038 C 237.991 211.520,237.425 212.441,236.867 213.086 C 236.309 213.730,235.972 213.994,236.119 213.672 C 236.266 213.350,236.109 213.427,235.771 213.844 C 235.433 214.261,235.152 214.437,235.148 214.235 C 235.143 214.033,234.776 214.307,234.332 214.844 C 233.889 215.381,233.660 215.568,233.824 215.259 C 234.129 214.682,230.744 216.971,230.045 217.813 C 229.766 218.150,230.371 218.913,232.198 220.527 C 233.596 221.762,234.667 222.891,234.577 223.036 C 234.487 223.181,235.767 224.606,237.422 226.201 L 240.430 229.102 237.695 226.154 L 234.961 223.207 238.208 226.455 C 239.993 228.242,241.619 229.602,241.821 229.477 C 242.023 229.353,242.188 229.447,242.188 229.688 C 242.188 229.928,242.363 230.016,242.578 229.883 C 242.793 229.750,242.969 229.847,242.969 230.097 C 242.969 230.389,243.321 230.465,243.945 230.308 C 244.558 230.155,244.922 230.229,244.922 230.507 C 244.922 230.769,245.320 230.874,245.898 230.764 C 246.436 230.661,246.875 230.750,246.875 230.962 C 246.875 231.182,247.378 231.247,248.047 231.113 C 248.691 230.984,249.219 231.022,249.219 231.197 C 249.219 231.688,257.182 231.385,257.347 230.888 C 257.425 230.655,257.651 230.564,257.849 230.686 C 258.047 230.809,258.314 230.635,258.442 230.300 C 258.571 229.966,258.807 229.773,258.969 229.873 C 259.130 229.973,259.669 229.620,260.168 229.090 C 260.666 228.559,260.955 228.125,260.810 228.125 C 260.665 228.125,260.912 227.760,261.358 227.314 C 261.805 226.867,262.074 226.252,261.957 225.946 C 261.839 225.641,261.925 225.391,262.148 225.391 C 262.383 225.391,262.442 225.042,262.289 224.560 C 262.144 224.104,262.176 223.823,262.360 223.937 C 262.545 224.050,262.709 221.444,262.725 218.145 C 262.742 214.846,262.643 212.216,262.506 212.301 C 262.368 212.386,262.321 211.455,262.400 210.232 C 262.507 208.567,262.438 208.155,262.122 208.594 C 261.810 209.027,261.767 208.645,261.955 207.129 C 262.136 205.675,262.077 205.078,261.751 205.078 C 261.435 205.078,261.376 204.636,261.560 203.654 C 261.749 202.645,261.699 202.310,261.388 202.502 C 261.080 202.692,261.024 202.399,261.200 201.521 C 261.383 200.602,261.326 200.346,260.983 200.558 C 260.645 200.767,260.586 200.567,260.769 199.837 C 260.924 199.220,260.859 198.828,260.601 198.828 C 260.370 198.828,260.282 198.564,260.406 198.242 C 260.529 197.920,260.441 197.656,260.210 197.656 C 259.979 197.656,259.886 197.406,260.003 197.101 C 260.136 196.754,258.779 195.104,256.388 192.707 C 254.283 190.595,252.995 189.400,253.526 190.052 C 254.057 190.704,253.086 189.811,251.367 188.069 C 249.648 186.326,248.594 185.363,249.023 185.928 C 249.453 186.493,248.331 185.452,246.529 183.614 C 244.727 181.777,243.573 180.713,243.963 181.250 C 244.354 181.787,243.279 180.805,241.575 179.068 C 239.871 177.331,238.823 176.364,239.246 176.920 C 239.892 177.767,239.810 177.737,238.738 176.731 C 237.514 175.582,236.675 173.047,237.519 173.047 C 237.723 173.047,237.891 172.070,237.891 170.875 C 237.891 169.471,237.747 168.793,237.484 168.955 C 237.218 169.119,237.171 168.838,237.346 168.139 C 237.534 167.389,237.482 167.153,237.171 167.345 C 236.886 167.521,236.811 167.403,236.960 167.012 C 237.096 166.660,236.985 166.406,236.695 166.406 C 236.422 166.406,236.312 166.292,236.452 166.152 C 236.592 166.012,236.402 165.647,236.029 165.342 C 235.577 164.971,235.547 164.870,235.938 165.039 C 236.260 165.178,236.172 165.008,235.742 164.661 C 235.313 164.313,234.961 163.817,234.961 163.557 C 234.961 163.298,234.749 163.086,234.489 163.086 C 234.230 163.086,233.791 162.788,233.513 162.424 C 233.235 162.060,232.745 161.708,232.423 161.643 C 232.102 161.577,231.662 161.313,231.447 161.057 C 231.231 160.800,230.792 160.536,230.470 160.471 C 230.149 160.405,229.652 160.088,229.367 159.766 C 228.906 159.245,228.876 159.245,229.102 159.766 C 229.241 160.088,229.078 160.010,228.740 159.593 C 228.402 159.176,228.125 158.990,228.125 159.180 C 228.125 159.369,227.867 159.183,227.551 158.766 C 227.236 158.349,226.972 158.173,226.966 158.375 C 226.959 158.578,226.733 158.455,226.465 158.104 C 226.196 157.752,225.714 157.411,225.392 157.346 C 225.071 157.280,224.631 157.016,224.415 156.760 C 224.200 156.503,223.774 156.239,223.470 156.174 C 223.166 156.108,222.588 155.741,222.186 155.357 C 221.785 154.973,221.305 154.752,221.120 154.866 C 220.936 154.980,220.680 154.800,220.552 154.465 C 220.423 154.131,220.141 153.966,219.925 154.100 C 219.708 154.234,219.531 154.146,219.531 153.906 C 219.531 153.666,219.374 153.567,219.182 153.686 C 218.989 153.805,218.721 153.614,218.586 153.262 C 218.451 152.910,218.231 152.733,218.096 152.868 C 217.961 153.003,217.658 152.862,217.421 152.554 C 217.185 152.247,216.743 151.942,216.439 151.877 C 216.134 151.811,215.557 151.444,215.155 151.060 C 214.753 150.676,214.274 150.455,214.089 150.569 C 213.905 150.683,213.643 150.489,213.508 150.137 C 213.373 149.785,213.164 149.596,213.044 149.716 C 212.924 149.836,212.482 149.592,212.063 149.172 C 211.643 148.752,211.149 148.502,210.964 148.616 C 210.780 148.730,210.524 148.550,210.395 148.215 C 210.267 147.881,209.985 147.716,209.768 147.850 C 209.552 147.984,209.375 147.911,209.375 147.689 C 209.375 147.149,207.109 146.000,206.629 146.296 C 206.421 146.425,206.250 146.329,206.250 146.082 C 206.250 145.780,205.711 145.709,204.590 145.863 C 203.413 146.025,203.157 145.986,203.711 145.729 C 204.354 145.431,204.376 145.363,203.832 145.340 C 203.468 145.325,203.062 145.489,202.929 145.705 M206.250 158.757 C 206.250 158.953,206.361 159.003,206.497 158.867 C 206.633 158.731,207.099 159.072,207.533 159.623 C 208.391 160.714,209.111 163.672,208.518 163.672 C 208.320 163.672,208.249 163.821,208.362 164.004 C 208.475 164.186,208.134 164.567,207.604 164.851 C 207.074 165.134,206.641 165.485,206.641 165.629 C 206.641 165.958,203.474 165.496,202.777 165.065 C 202.494 164.891,201.946 164.041,201.559 163.177 C 200.825 161.537,200.830 161.518,202.409 159.770 C 202.767 159.374,202.948 158.938,202.811 158.801 C 202.675 158.664,202.865 158.668,203.235 158.810 C 203.604 158.952,203.906 158.917,203.906 158.733 C 203.906 158.549,204.434 158.398,205.078 158.398 C 205.723 158.398,206.250 158.560,206.250 158.757 M219.922 167.620 C 219.922 167.858,220.171 167.957,220.475 167.840 C 220.780 167.723,221.136 167.905,221.266 168.245 C 221.396 168.584,221.597 168.767,221.713 168.652 C 221.829 168.536,222.643 169.170,223.523 170.061 C 224.403 170.951,224.795 171.240,224.393 170.703 C 223.991 170.166,224.864 170.957,226.333 172.461 C 227.802 173.965,228.687 174.756,228.299 174.219 C 227.912 173.682,228.791 174.473,230.253 175.977 C 231.715 177.480,232.669 178.353,232.373 177.915 C 232.078 177.478,232.859 178.181,234.109 179.478 C 235.359 180.775,236.261 181.572,236.113 181.250 C 235.966 180.928,236.789 181.645,237.942 182.844 C 239.095 184.044,239.863 184.737,239.648 184.386 C 239.434 184.034,240.377 184.899,241.745 186.307 C 243.113 187.715,244.006 188.516,243.730 188.086 C 243.454 187.656,244.181 188.286,245.345 189.485 C 246.509 190.684,247.211 191.299,246.906 190.852 C 246.601 190.405,247.568 191.281,249.055 192.800 C 250.541 194.319,251.494 195.187,251.172 194.729 C 250.850 194.272,251.505 194.875,252.629 196.070 C 253.753 197.265,254.828 198.206,255.019 198.162 C 255.209 198.118,255.784 198.557,256.296 199.138 L 257.227 200.195 256.230 199.414 C 255.621 198.937,255.721 199.116,256.486 199.874 C 257.175 200.557,257.638 201.216,257.515 201.339 C 257.392 201.462,257.453 201.563,257.650 201.563 C 257.847 201.563,258.008 202.425,258.008 203.478 C 258.008 204.545,257.849 205.296,257.648 205.172 C 257.450 205.049,257.404 205.249,257.546 205.620 C 257.688 205.989,257.656 206.200,257.476 206.088 C 257.296 205.977,256.920 206.313,256.641 206.836 C 256.361 207.358,255.994 207.700,255.824 207.595 C 255.654 207.490,255.294 207.642,255.023 207.932 C 254.669 208.311,254.083 208.378,252.948 208.170 C 252.079 208.011,251.297 207.950,251.210 208.036 C 251.124 208.121,250.804 207.886,250.498 207.513 C 250.130 207.065,250.029 207.034,250.199 207.422 C 250.341 207.744,249.927 207.393,249.280 206.641 C 248.632 205.889,247.906 205.273,247.666 205.273 C 247.426 205.273,246.171 204.131,244.877 202.734 C 243.584 201.338,242.648 200.459,242.798 200.781 C 242.947 201.104,241.971 200.225,240.627 198.828 C 239.284 197.432,238.426 196.647,238.721 197.085 C 239.016 197.522,238.227 196.819,236.968 195.522 C 235.709 194.225,234.902 193.516,235.175 193.945 C 235.448 194.375,234.479 193.496,233.021 191.992 C 231.563 190.488,230.612 189.616,230.908 190.053 C 231.204 190.491,230.415 189.788,229.156 188.491 C 227.896 187.194,227.093 186.484,227.371 186.914 C 227.648 187.344,226.767 186.553,225.413 185.156 C 224.058 183.760,223.267 183.057,223.654 183.594 C 224.041 184.131,223.173 183.340,221.724 181.836 C 220.275 180.332,219.217 179.365,219.372 179.688 C 219.528 180.010,218.528 179.131,217.152 177.734 C 215.775 176.338,214.703 175.063,214.769 174.902 C 214.836 174.741,214.720 174.609,214.513 174.609 C 214.305 174.609,214.228 174.257,214.340 173.826 C 214.453 173.395,214.327 172.780,214.061 172.459 C 213.676 171.995,213.676 171.875,214.060 171.875 C 214.352 171.875,214.463 171.565,214.340 171.094 C 214.228 170.664,214.285 170.313,214.468 170.313 C 214.650 170.313,215.105 169.795,215.479 169.162 C 215.853 168.529,216.302 168.100,216.478 168.208 C 216.653 168.317,216.797 168.225,216.797 168.004 C 216.797 167.783,217.061 167.704,217.383 167.827 C 217.705 167.951,217.969 167.858,217.969 167.620 C 217.969 167.382,218.408 167.188,218.945 167.188 C 219.482 167.188,219.922 167.382,219.922 167.620 M189.063 178.470 C 189.063 178.660,189.543 178.907,190.129 179.019 C 191.127 179.210,191.148 179.188,190.445 178.674 C 189.587 178.046,189.063 177.969,189.063 178.470 M254.688 179.810 C 254.688 179.877,255.259 180.448,255.957 181.079 L 257.227 182.227 256.079 180.957 C 255.010 179.774,254.688 179.508,254.688 179.810 M259.375 184.107 C 259.375 184.174,259.946 184.745,260.645 185.376 L 261.914 186.523 260.767 185.254 C 259.697 184.071,259.375 183.805,259.375 184.107 M188.656 188.642 C 190.828 192.700,202.755 201.672,204.139 200.288 C 204.434 199.993,201.855 197.166,197.063 192.530 C 192.829 188.434,192.744 188.376,190.496 188.103 C 188.273 187.833,188.230 187.846,188.656 188.642 M185.352 198.047 C 186.627 199.336,187.759 200.391,187.866 200.391 C 187.974 200.391,187.018 199.336,185.742 198.047 C 184.467 196.758,183.335 195.703,183.228 195.703 C 183.120 195.703,184.076 196.758,185.352 198.047 M270.802 213.477 C 270.806 214.336,270.886 214.642,270.979 214.156 C 271.073 213.670,271.069 212.967,270.972 212.593 C 270.874 212.220,270.797 212.617,270.802 213.477 M262.989 219.727 C 262.993 220.586,263.073 220.892,263.167 220.406 C 263.260 219.920,263.257 219.217,263.159 218.843 C 263.061 218.470,262.985 218.867,262.989 219.727 M226.055 235.158 C 225.197 235.838,221.700 240.642,220.210 243.187 C 220.067 243.431,221.840 244.464,224.535 245.708 C 233.923 250.041,243.060 255.472,247.156 259.155 L 249.163 260.960 252.121 256.193 C 255.245 251.156,255.390 250.711,254.547 248.718 C 251.885 242.421,230.022 232.016,226.055 235.158 M233.122 259.825 C 233.399 260.180,233.481 260.532,233.303 260.607 C 233.125 260.681,231.030 264.082,228.646 268.164 C 226.263 272.246,223.922 276.247,223.444 277.054 C 222.804 278.136,222.730 278.463,223.162 278.297 C 223.485 278.173,223.882 278.287,224.044 278.549 C 224.245 278.875,224.177 278.926,223.828 278.711 C 223.497 278.506,223.411 278.548,223.585 278.829 C 223.732 279.067,224.093 279.171,224.387 279.058 C 224.681 278.945,225.054 279.068,225.216 279.331 C 225.417 279.656,225.349 279.708,225.000 279.492 C 224.669 279.288,224.583 279.329,224.757 279.610 C 224.904 279.849,225.312 279.934,225.663 279.799 C 226.057 279.648,226.203 279.712,226.045 279.968 C 225.900 280.202,226.083 280.357,226.469 280.327 C 226.843 280.298,227.107 280.487,227.055 280.748 C 227.004 281.008,227.206 281.128,227.504 281.014 C 227.802 280.900,228.179 281.021,228.341 281.284 C 228.542 281.609,228.474 281.661,228.125 281.445 C 227.794 281.241,227.708 281.282,227.882 281.563 C 228.029 281.802,228.390 281.905,228.684 281.792 C 228.978 281.680,229.351 281.802,229.513 282.065 C 229.714 282.391,229.645 282.442,229.297 282.227 C 228.966 282.022,228.880 282.063,229.054 282.344 C 229.201 282.583,229.562 282.686,229.856 282.573 C 230.149 282.461,230.523 282.584,230.685 282.846 C 230.886 283.172,230.817 283.223,230.469 283.008 C 230.138 282.803,230.052 282.845,230.226 283.126 C 230.373 283.364,230.734 283.467,231.028 283.355 C 231.321 283.242,231.694 283.365,231.857 283.627 C 232.058 283.953,231.989 284.004,231.641 283.789 C 231.300 283.578,231.224 283.625,231.412 283.930 C 231.567 284.182,231.887 284.269,232.123 284.123 C 232.358 283.977,232.981 284.370,233.506 284.996 C 234.031 285.621,234.325 285.883,234.158 285.578 C 233.938 285.173,234.027 285.089,234.486 285.265 C 234.950 285.443,235.053 285.341,234.875 284.877 C 234.715 284.460,234.786 284.342,235.085 284.527 C 235.374 284.705,235.459 284.601,235.320 284.239 C 235.201 283.928,235.318 283.540,235.581 283.378 C 235.906 283.176,235.958 283.245,235.742 283.594 C 235.532 283.935,235.579 284.011,235.884 283.822 C 236.135 283.667,236.243 283.381,236.123 283.188 C 236.004 282.994,236.181 282.303,236.518 281.652 C 237.220 280.294,237.745 280.020,237.102 281.348 C 236.704 282.168,236.715 282.178,237.256 281.505 C 237.576 281.108,237.757 280.576,237.660 280.322 C 237.562 280.068,237.763 279.514,238.106 279.090 C 238.449 278.667,238.619 278.540,238.482 278.809 C 238.053 279.657,238.623 279.336,239.088 278.468 C 239.426 277.837,239.421 277.708,239.069 277.926 C 238.799 278.093,238.868 277.708,239.236 276.996 C 239.581 276.328,239.958 275.781,240.072 275.781 C 240.187 275.781,240.155 275.984,240.002 276.232 C 239.833 276.505,239.894 276.577,240.157 276.415 C 240.396 276.268,240.481 275.860,240.346 275.509 C 240.184 275.086,240.254 274.966,240.554 275.152 C 240.834 275.324,240.930 275.232,240.807 274.911 C 240.698 274.626,240.888 274.045,241.231 273.622 C 241.574 273.198,241.727 273.098,241.570 273.400 C 241.388 273.752,241.441 273.853,241.719 273.681 C 241.958 273.533,242.069 273.193,241.967 272.926 C 241.864 272.658,242.060 272.092,242.403 271.668 C 242.746 271.245,242.899 271.145,242.742 271.447 C 242.559 271.799,242.613 271.900,242.891 271.728 C 243.130 271.580,243.215 271.172,243.081 270.822 C 242.904 270.361,242.980 270.273,243.353 270.504 C 243.682 270.707,243.777 270.672,243.614 270.408 C 243.286 269.877,243.727 268.690,244.155 268.954 C 244.332 269.064,244.590 268.970,244.729 268.747 C 244.867 268.523,244.755 268.388,244.480 268.447 C 244.206 268.506,243.970 268.379,243.957 268.164 C 243.916 267.495,243.321 266.774,242.982 266.984 C 242.805 267.093,242.325 266.877,241.917 266.502 C 241.508 266.127,241.446 265.996,241.778 266.211 C 242.299 266.547,242.311 266.510,241.866 265.941 C 241.582 265.578,241.126 265.366,240.854 265.471 C 240.582 265.575,240.112 265.355,239.809 264.982 C 239.338 264.402,239.338 264.352,239.806 264.634 C 240.171 264.854,240.265 264.819,240.087 264.531 C 239.939 264.292,239.605 264.171,239.343 264.262 C 239.081 264.353,238.340 263.975,237.695 263.421 C 237.051 262.867,236.770 262.549,237.072 262.713 C 237.428 262.906,237.526 262.859,237.353 262.577 C 237.205 262.339,236.844 262.236,236.550 262.348 C 236.257 262.461,235.884 262.338,235.721 262.076 C 235.517 261.744,235.594 261.696,235.975 261.916 C 236.294 262.102,236.390 262.088,236.203 261.884 C 236.027 261.691,235.587 261.531,235.226 261.528 C 234.866 261.526,234.612 261.310,234.663 261.049 C 234.721 260.757,234.509 260.670,234.111 260.823 C 233.710 260.977,233.562 260.914,233.721 260.658 C 233.861 260.431,233.670 260.005,233.296 259.712 C 232.690 259.237,232.672 259.249,233.122 259.825 M196.966 267.969 C 196.966 268.721,197.046 269.028,197.144 268.652 C 197.243 268.276,197.243 267.661,197.144 267.285 C 197.046 266.909,196.966 267.217,196.966 267.969 M191.491 293.291 C 177.220 316.486,158.845 346.493,153.893 354.688 C 151.881 358.018,150.050 360.871,149.825 361.029 C 149.599 361.187,154.527 361.319,160.777 361.322 L 172.140 361.328 172.581 360.361 C 172.823 359.829,183.063 342.662,195.336 322.213 C 207.609 301.763,217.732 284.820,217.831 284.561 C 218.005 284.109,213.983 281.212,206.575 276.453 L 203.189 274.278 191.491 293.291 M166.699 360.839 C 163.745 360.905,158.911 360.905,155.957 360.839 C 153.003 360.773,155.420 360.718,161.328 360.718 C 167.236 360.718,169.653 360.773,166.699 360.839 " stroke="none" fill="#849db0" fill-rule="evenodd"></path></g></svg>