<svg id="svg" version="1.1" xmlns="http://www.w3.org/2000/svg" xmlns:xlink="http://www.w3.org/1999/xlink" width="400" height="400" viewBox="0, 0, 400,400"><g id="svgg"><path id="path0" d="M125.991 56.075 C 115.019 57.360,114.063 57.798,114.063 61.536 C 114.063 63.640,113.171 61.868,132.733 98.633 C 139.706 111.738,147.782 126.943,150.679 132.422 C 153.577 137.900,156.543 143.487,157.271 144.838 C 159.630 149.216,163.609 149.938,125.781 139.121 C 91.885 129.428,96.214 130.388,87.081 130.538 C 75.934 130.720,75.274 132.016,81.440 141.602 C 84.286 146.025,81.646 144.515,120.901 164.165 C 156.911 182.190,156.061 181.827,167.815 184.213 C 175.979 185.870,175.482 185.609,178.581 189.874 C 187.531 202.194,197.767 209.070,206.084 208.348 L 208.848 208.108 214.562 213.296 C 217.705 216.150,220.351 218.676,220.441 218.910 C 220.532 219.144,221.682 220.787,222.998 222.561 C 225.802 226.341,225.784 226.263,224.029 226.898 C 219.787 228.432,218.015 230.780,207.333 249.023 C 197.657 265.550,197.266 266.280,197.266 267.789 C 197.266 268.636,195.892 271.187,192.532 276.581 C 176.662 302.055,155.316 336.912,145.231 353.821 C 141.136 360.687,141.145 360.742,146.447 360.742 L 150.512 360.742 153.141 356.445 C 154.587 354.082,159.154 346.611,163.291 339.844 C 167.427 333.076,172.431 324.902,174.411 321.680 C 176.390 318.457,181.839 309.580,186.520 301.953 C 201.775 277.096,202.994 275.193,203.634 275.245 C 204.840 275.344,217.615 284.105,217.394 284.682 C 217.278 284.985,209.152 298.619,199.337 314.980 C 189.523 331.340,179.416 348.188,176.879 352.419 C 174.342 356.649,172.266 360.297,172.266 360.524 C 172.266 360.806,176.283 360.938,184.939 360.937 C 200.196 360.937,197.860 362.173,204.515 350.586 C 207.230 345.859,213.848 334.346,219.223 325.000 C 224.597 315.654,230.841 304.788,233.098 300.852 C 236.050 295.706,237.558 293.463,238.470 292.865 C 240.086 291.806,239.891 292.109,249.212 276.224 C 253.544 268.840,258.209 261.158,259.578 259.153 C 260.948 257.148,262.334 254.609,262.660 253.511 C 262.986 252.413,263.764 250.866,264.388 250.074 C 268.406 244.972,269.618 241.397,269.712 234.375 C 269.754 231.256,270.069 227.585,270.482 225.391 C 271.933 217.692,270.087 199.583,267.240 193.574 C 265.542 189.990,257.897 182.178,247.447 173.350 C 246.336 172.411,246.153 171.973,245.904 169.645 C 244.968 160.908,242.694 157.981,231.641 151.288 C 228.096 149.142,222.610 145.783,219.451 143.825 C 209.003 137.350,204.812 136.008,199.658 137.486 C 196.874 138.284,195.392 136.693,197.416 135.078 C 200.114 132.925,199.836 130.525,196.186 124.470 C 194.049 120.924,192.930 119.548,180.273 104.910 C 175.117 98.946,163.779 85.780,155.078 75.652 C 135.512 52.876,138.150 54.652,125.991 56.075 M137.447 73.438 C 141.184 78.916,152.579 95.589,162.768 110.489 L 181.294 137.580 178.995 139.661 C 177.730 140.806,176.021 142.721,175.197 143.918 C 173.344 146.609,173.524 146.617,168.662 143.615 L 164.648 141.137 158.084 128.869 C 139.688 94.490,123.803 64.348,123.985 64.166 C 124.252 63.899,128.437 63.352,129.681 63.422 C 130.491 63.468,131.772 65.119,137.447 73.438 M119.560 145.470 C 130.211 148.793,145.328 153.386,153.154 155.676 C 160.980 157.967,168.325 160.131,169.477 160.487 L 171.571 161.133 172.461 163.961 C 173.513 167.303,175.227 170.112,177.431 172.103 C 178.893 173.424,180.038 174.029,186.876 177.101 C 190.825 178.874,189.072 178.657,179.459 176.180 L 170.173 173.787 158.426 168.184 C 151.966 165.103,137.627 158.239,126.563 152.932 C 115.498 147.624,104.556 142.394,102.246 141.309 C 98.357 139.483,96.618 138.237,99.121 139.070 C 99.712 139.267,108.909 142.147,119.560 145.470 M189.453 143.958 C 189.453 144.073,189.016 145.030,188.481 146.084 C 187.133 148.745,184.997 160.612,185.263 163.965 C 185.506 167.028,184.830 167.216,182.532 164.723 C 177.284 159.029,179.575 148.360,186.821 144.749 C 188.818 143.754,189.453 143.563,189.453 143.958 M214.848 150.822 C 219.250 153.526,225.300 157.217,228.293 159.022 C 236.483 163.963,238.093 166.202,237.825 172.283 L 237.695 175.231 247.659 184.419 C 260.567 196.322,260.066 195.709,261.172 200.965 C 265.415 221.137,262.607 231.892,253.128 231.769 C 244.552 231.657,241.066 230.067,234.767 223.391 C 229.240 217.535,229.300 218.191,233.989 214.881 C 238.393 211.772,239.203 210.406,238.254 207.684 C 237.636 205.912,237.861 206.120,213.086 184.456 C 205.352 177.693,198.168 171.349,197.121 170.357 C 193.460 166.887,192.849 163.925,194.283 156.591 C 195.978 147.925,198.124 145.568,204.106 145.799 L 206.844 145.904 214.848 150.822 M203.081 159.180 C 199.824 160.950,201.350 165.625,205.184 165.625 C 208.355 165.625,209.742 162.025,207.452 159.736 C 206.181 158.465,204.735 158.281,203.081 159.180 M216.974 168.127 C 214.665 169.133,213.556 172.594,214.799 174.916 C 215.448 176.130,250.210 207.373,251.425 207.834 C 254.772 209.107,257.813 206.875,257.813 203.146 C 257.813 201.025,257.271 200.455,243.555 188.142 C 237.324 182.548,229.980 175.941,227.234 173.459 C 220.608 167.470,219.639 166.966,216.974 168.127 M198.225 194.165 C 201.223 197.142,203.573 199.682,203.447 199.808 C 202.521 200.734,197.526 197.315,192.480 192.303 C 188.522 188.370,188.430 188.145,190.918 188.492 C 192.666 188.736,193.091 189.066,198.225 194.165 M235.229 236.534 C 248.025 241.237,255.961 247.471,254.404 251.596 C 253.819 253.146,249.473 260.126,249.083 260.142 C 248.902 260.150,247.976 259.473,247.027 258.638 C 243.114 255.193,234.419 250.009,225.631 245.881 C 219.884 243.181,220.133 243.751,222.888 239.611 C 226.655 233.949,227.574 233.720,235.229 236.534 M222.591 253.521 C 231.663 258.195,244.360 267.011,244.314 268.604 C 244.294 269.261,235.634 284.750,234.765 285.681 C 234.596 285.862,232.638 284.792,230.413 283.302 C 224.598 279.409,217.056 274.941,210.645 271.592 C 207.583 269.993,205.078 268.621,205.078 268.544 C 205.078 268.330,214.881 251.437,215.329 250.879 C 215.936 250.122,216.131 250.193,222.591 253.521 " stroke="none" fill="#354c66" fill-rule="evenodd"></path><path id="path1" d="M188.281 48.848 C 177.724 49.613,167.472 51.491,156.250 54.718 C 151.680 56.032,149.358 56.810,143.115 59.119 L 141.894 59.570 147.942 66.602 C 151.268 70.469,158.146 78.464,163.226 84.370 C 168.305 90.275,176.997 100.359,182.541 106.779 C 199.770 126.729,202.187 131.094,198.206 135.075 C 196.417 136.865,196.444 136.876,202.652 136.902 C 209.292 136.930,209.059 136.831,223.461 145.688 C 229.142 149.181,235.030 152.802,236.547 153.735 C 242.637 157.482,246.484 163.905,246.484 170.328 C 246.484 171.721,246.829 172.097,254.785 179.391 C 266.782 190.389,267.471 191.251,269.125 197.340 C 271.136 204.747,272.054 220.028,270.857 226.172 C 270.368 228.679,270.170 231.160,270.247 233.821 C 270.428 240.112,268.922 244.875,265.188 249.821 C 264.349 250.932,263.407 252.704,263.093 253.759 C 262.780 254.815,261.444 257.257,260.124 259.187 C 258.804 261.117,253.959 269.111,249.356 276.953 C 241.973 289.532,239.478 293.236,238.011 293.793 C 237.791 293.877,232.726 302.471,226.755 312.891 C 220.784 323.311,214.598 334.098,213.009 336.862 C 211.419 339.627,210.207 341.978,210.315 342.086 C 210.573 342.344,221.379 340.809,226.367 339.807 C 307.798 323.440,360.527 247.609,345.855 167.969 C 332.409 94.977,264.119 43.353,188.281 48.848 M117.139 72.793 C 116.583 73.255,114.534 74.743,112.586 76.100 C 28.079 134.977,31.837 262.638,119.727 318.649 C 131.175 325.945,154.606 336.283,156.066 334.682 C 156.318 334.406,159.304 329.609,162.702 324.023 C 168.450 314.573,189.353 280.720,194.258 272.919 C 195.515 270.920,196.540 268.785,196.697 267.841 C 197.061 265.657,197.331 265.152,206.548 249.414 C 217.575 230.588,218.606 229.161,222.779 226.950 C 223.790 226.415,224.539 225.773,224.444 225.525 C 223.688 223.548,218.167 217.169,213.849 213.284 L 208.859 208.795 204.527 208.763 C 199.358 208.725,197.284 208.056,192.983 205.035 C 189.228 202.398,181.285 194.421,177.943 189.931 C 176.457 187.934,174.884 186.225,174.439 186.125 C 173.996 186.025,170.286 185.241,166.194 184.382 C 155.545 182.147,156.530 182.576,119.701 164.144 C 82.929 145.742,83.535 146.098,80.538 141.122 C 74.862 131.700,75.456 130.459,85.867 129.982 C 94.716 129.577,92.411 129.070,128.080 139.251 C 144.275 143.874,157.691 147.656,157.891 147.656 C 158.092 147.656,157.386 146.030,156.322 144.043 C 155.259 142.056,148.546 129.443,141.406 116.016 C 134.265 102.588,126.317 87.669,123.743 82.862 C 121.169 78.055,118.857 73.635,118.607 73.038 L 118.151 71.954 117.139 72.793 " stroke="none" fill="#9bd1f1" fill-rule="evenodd"></path><path id="path2" d="M195.996 48.337 C 197.769 48.410,200.669 48.410,202.441 48.337 C 204.214 48.265,202.764 48.206,199.219 48.206 C 195.674 48.206,194.224 48.265,195.996 48.337 M187.988 48.722 C 188.794 48.806,190.112 48.806,190.918 48.722 C 191.724 48.638,191.064 48.569,189.453 48.569 C 187.842 48.569,187.183 48.638,187.988 48.722 M207.706 48.719 C 208.400 48.806,209.630 48.807,210.441 48.723 C 211.251 48.638,210.684 48.567,209.180 48.566 C 207.676 48.564,207.013 48.633,207.706 48.719 M183.496 49.104 C 183.979 49.197,184.771 49.197,185.254 49.104 C 185.737 49.011,185.342 48.935,184.375 48.935 C 183.408 48.935,183.013 49.011,183.496 49.104 M213.384 49.108 C 213.978 49.198,214.857 49.196,215.337 49.103 C 215.818 49.010,215.332 48.937,214.258 48.940 C 213.184 48.943,212.791 49.019,213.384 49.108 M180.376 49.495 C 180.862 49.588,181.565 49.585,181.938 49.487 C 182.312 49.389,181.914 49.313,181.055 49.317 C 180.195 49.322,179.890 49.402,180.376 49.495 M217.094 49.495 C 217.580 49.588,218.283 49.585,218.657 49.487 C 219.030 49.389,218.633 49.313,217.773 49.317 C 216.914 49.322,216.608 49.402,217.094 49.495 M177.441 49.879 C 177.817 49.977,178.433 49.977,178.809 49.879 C 179.185 49.780,178.877 49.700,178.125 49.700 C 177.373 49.700,177.065 49.780,177.441 49.879 M222.266 50.208 C 223.877 50.490,225.635 50.715,226.172 50.708 C 226.709 50.700,225.918 50.460,224.414 50.176 C 222.910 49.891,221.152 49.666,220.508 49.675 C 219.863 49.685,220.654 49.925,222.266 50.208 M174.707 50.269 C 175.083 50.368,175.698 50.368,176.074 50.269 C 176.450 50.171,176.143 50.091,175.391 50.091 C 174.639 50.091,174.331 50.171,174.707 50.269 M169.922 50.977 C 168.740 51.251,168.125 51.487,168.555 51.502 C 168.984 51.516,170.391 51.290,171.680 51.000 C 172.969 50.709,173.584 50.472,173.047 50.474 C 172.510 50.477,171.104 50.703,169.922 50.977 M229.102 51.376 C 230.176 51.652,231.406 51.874,231.836 51.869 C 232.266 51.864,231.738 51.634,230.664 51.358 C 229.590 51.082,228.359 50.860,227.930 50.865 C 227.500 50.870,228.027 51.100,229.102 51.376 M165.234 51.953 C 164.461 52.201,164.420 52.266,165.039 52.266 C 165.469 52.266,166.260 52.125,166.797 51.953 C 167.570 51.705,167.611 51.640,166.992 51.640 C 166.563 51.640,165.771 51.781,165.234 51.953 M162.109 52.734 C 161.324 52.986,161.286 53.049,161.914 53.059 C 162.344 53.065,163.047 52.919,163.477 52.734 C 164.472 52.307,163.445 52.307,162.109 52.734 M236.523 52.957 C 237.598 53.256,238.652 53.486,238.867 53.467 C 239.528 53.411,236.183 52.403,235.352 52.409 C 234.922 52.411,235.449 52.658,236.523 52.957 M159.180 53.516 C 158.687 53.727,158.615 53.851,158.984 53.851 C 159.307 53.851,159.922 53.700,160.352 53.516 C 160.844 53.304,160.916 53.180,160.547 53.180 C 160.225 53.180,159.609 53.331,159.180 53.516 M242.188 54.491 C 243.799 55.020,245.293 55.444,245.508 55.433 C 246.123 55.400,242.065 54.021,240.588 53.761 C 239.856 53.632,240.576 53.961,242.188 54.491 M155.078 54.671 C 153.896 55.066,153.105 55.404,153.320 55.423 C 153.535 55.442,154.766 55.125,156.055 54.718 C 157.344 54.311,158.135 53.972,157.813 53.966 C 157.490 53.959,156.260 54.277,155.078 54.671 M124.414 55.550 C 112.602 56.915,111.049 58.969,115.430 67.435 C 118.042 72.484,118.070 71.864,115.137 73.851 C 96.044 86.782,77.439 107.489,67.770 126.568 C 65.992 130.079,67.050 128.607,69.390 124.316 C 79.344 106.063,96.696 86.938,114.188 74.939 C 118.515 71.970,118.435 72.351,115.805 67.337 C 111.369 58.877,112.685 57.288,125.301 55.877 C 136.119 54.666,137.180 54.815,140.213 57.974 C 140.954 58.744,141.745 59.376,141.971 59.377 C 142.581 59.380,148.089 57.334,147.922 57.167 C 147.843 57.088,146.445 57.504,144.814 58.090 L 141.848 59.157 140.433 57.700 C 137.252 54.424,135.818 54.232,124.414 55.550 M250.586 57.182 C 251.230 57.476,252.197 57.824,252.734 57.955 C 253.519 58.148,253.480 58.090,252.539 57.661 C 251.895 57.368,250.928 57.020,250.391 56.888 C 249.606 56.696,249.645 56.754,250.586 57.182 M255.428 59.020 C 256.372 59.439,257.215 59.712,257.300 59.627 C 257.469 59.459,254.458 58.186,253.996 58.231 C 253.839 58.246,254.484 58.601,255.428 59.020 M260.902 61.353 C 262.708 62.202,264.250 62.834,264.327 62.756 C 264.493 62.591,258.378 59.755,257.925 59.788 C 257.756 59.800,259.095 60.504,260.902 61.353 M270.494 66.059 C 297.977 80.947,319.560 103.152,333.478 130.859 C 337.555 138.975,338.285 139.966,334.838 132.705 C 321.703 105.041,298.536 80.829,270.878 65.861 C 267.859 64.227,265.223 62.891,265.019 62.892 C 264.815 62.892,267.279 64.317,270.494 66.059 M126.563 64.029 C 125.381 64.155,124.444 64.434,124.480 64.648 C 124.547 65.045,139.569 93.417,155.946 124.078 L 164.947 140.929 168.904 143.316 C 173.624 146.163,173.360 146.133,174.722 143.977 C 175.321 143.029,176.901 141.177,178.232 139.862 C 180.584 137.539,180.636 137.444,180.072 136.494 C 179.753 135.957,174.463 128.185,168.315 119.223 C 155.646 100.755,139.427 77.030,134.011 69.043 C 131.135 64.803,130.194 63.685,129.539 63.736 C 129.084 63.771,127.744 63.902,126.563 64.029 M63.549 135.101 C 61.667 139.218,59.699 144.204,59.883 144.388 C 59.964 144.469,60.526 143.261,61.131 141.702 C 61.736 140.143,62.908 137.389,63.736 135.583 C 64.564 133.776,65.178 132.235,65.100 132.157 C 65.023 132.080,64.325 133.404,63.549 135.101 M337.918 140.293 C 337.903 140.432,338.486 142.102,339.215 144.004 C 339.943 145.905,340.949 148.750,341.450 150.325 C 341.951 151.900,342.415 153.030,342.479 152.836 C 342.544 152.642,341.902 150.475,341.054 148.019 C 339.550 143.666,337.974 139.783,337.918 140.293 M58.439 147.926 C 57.879 149.605,57.435 151.154,57.451 151.369 C 57.467 151.583,57.993 150.277,58.619 148.466 C 59.246 146.656,59.690 145.107,59.607 145.024 C 59.524 144.940,58.998 146.246,58.439 147.926 M56.864 152.958 C 56.720 153.530,56.678 154.074,56.770 154.166 C 56.862 154.258,57.055 153.865,57.199 153.292 C 57.342 152.720,57.385 152.176,57.292 152.084 C 57.200 151.992,57.008 152.385,56.864 152.958 M342.633 153.906 C 342.633 154.229,342.784 154.844,342.969 155.273 C 343.180 155.766,343.304 155.838,343.304 155.469 C 343.304 155.146,343.153 154.531,342.969 154.102 C 342.757 153.609,342.633 153.537,342.633 153.906 M55.892 156.478 C 55.640 157.479,55.507 158.371,55.596 158.461 C 55.686 158.550,55.965 157.805,56.217 156.803 C 56.470 155.802,56.603 154.910,56.513 154.820 C 56.424 154.731,56.144 155.477,55.892 156.478 M343.407 156.445 C 343.391 156.660,343.723 158.066,344.145 159.570 C 344.567 161.074,344.825 161.677,344.717 160.909 C 344.504 159.388,343.455 155.813,343.407 156.445 M53.977 164.388 C 53.508 166.588,53.140 168.690,53.159 169.058 C 53.177 169.426,53.615 167.793,54.131 165.430 C 54.648 163.066,55.016 160.965,54.950 160.759 C 54.883 160.554,54.446 162.187,53.977 164.388 M344.985 162.891 C 344.969 163.213,345.194 164.531,345.485 165.820 C 345.776 167.109,346.015 167.725,346.016 167.188 C 346.019 166.092,345.031 161.974,344.985 162.891 M52.434 173.828 C 52.434 174.580,52.515 174.888,52.613 174.512 C 52.711 174.136,52.711 173.521,52.613 173.145 C 52.515 172.769,52.434 173.076,52.434 173.828 M346.966 174.219 C 346.966 174.971,347.046 175.278,347.144 174.902 C 347.243 174.526,347.243 173.911,347.144 173.535 C 347.046 173.159,346.966 173.467,346.966 174.219 M52.052 176.758 C 52.056 177.617,52.136 177.923,52.229 177.437 C 52.323 176.951,52.319 176.248,52.222 175.874 C 52.124 175.501,52.047 175.898,52.052 176.758 M347.364 177.148 C 347.368 178.008,347.448 178.313,347.542 177.827 C 347.635 177.342,347.632 176.638,347.534 176.265 C 347.436 175.892,347.360 176.289,347.364 177.148 M51.674 180.273 C 51.677 181.348,51.753 181.741,51.843 181.147 C 51.933 180.553,51.930 179.674,51.837 179.194 C 51.745 178.713,51.671 179.199,51.674 180.273 M347.768 180.664 C 347.771 181.738,347.847 182.131,347.937 181.538 C 348.026 180.944,348.024 180.065,347.931 179.584 C 347.839 179.104,347.765 179.590,347.768 180.664 M51.297 184.766 C 51.297 186.162,51.368 186.733,51.454 186.035 C 51.541 185.337,51.541 184.194,51.454 183.496 C 51.368 182.798,51.297 183.369,51.297 184.766 M348.181 186.133 C 348.182 187.852,348.251 188.506,348.333 187.587 C 348.416 186.669,348.415 185.262,348.331 184.462 C 348.247 183.662,348.179 184.414,348.181 186.133 M50.943 195.117 C 50.943 198.984,51.002 200.514,51.073 198.515 C 51.144 196.517,51.143 193.353,51.072 191.484 C 51.000 189.615,50.942 191.250,50.943 195.117 M348.582 194.922 C 348.582 197.178,348.647 198.101,348.725 196.973 C 348.804 195.845,348.804 193.999,348.725 192.871 C 348.647 191.743,348.582 192.666,348.582 194.922 M348.175 203.711 C 348.177 205.215,348.247 205.782,348.332 204.972 C 348.417 204.161,348.415 202.931,348.329 202.237 C 348.243 201.544,348.173 202.207,348.175 203.711 M51.297 205.078 C 51.297 206.475,51.368 207.046,51.454 206.348 C 51.541 205.649,51.541 204.507,51.454 203.809 C 51.368 203.110,51.297 203.682,51.297 205.078 M347.768 208.789 C 347.771 209.863,347.847 210.256,347.937 209.663 C 348.026 209.069,348.024 208.190,347.931 207.709 C 347.839 207.229,347.765 207.715,347.768 208.789 M51.669 209.766 C 51.669 210.732,51.745 211.128,51.838 210.645 C 51.931 210.161,51.931 209.370,51.838 208.887 C 51.745 208.403,51.669 208.799,51.669 209.766 M347.364 212.305 C 347.368 213.164,347.448 213.470,347.542 212.984 C 347.635 212.498,347.632 211.795,347.534 211.421 C 347.436 211.048,347.360 211.445,347.364 212.305 M52.052 213.086 C 52.056 213.945,52.136 214.251,52.229 213.765 C 52.323 213.279,52.319 212.576,52.222 212.202 C 52.124 211.829,52.047 212.227,52.052 213.086 M346.708 216.434 C 346.558 217.753,346.516 218.912,346.615 219.010 C 346.713 219.108,346.918 218.112,347.070 216.797 C 347.223 215.481,347.265 214.322,347.163 214.221 C 347.062 214.119,346.857 215.115,346.708 216.434 M52.434 216.016 C 52.434 216.768,52.515 217.075,52.613 216.699 C 52.711 216.323,52.711 215.708,52.613 215.332 C 52.515 214.956,52.434 215.264,52.434 216.016 M52.826 218.555 C 52.826 219.199,52.961 220.254,53.125 220.898 C 53.538 222.523,53.557 220.924,53.147 218.945 C 52.876 217.632,52.824 217.569,52.826 218.555 M53.984 224.805 C 53.984 225.234,54.125 226.025,54.297 226.563 C 54.545 227.336,54.610 227.376,54.610 226.758 C 54.610 226.328,54.469 225.537,54.297 225.000 C 54.049 224.227,53.984 224.186,53.984 224.805 M344.201 228.966 C 343.946 230.072,343.808 231.047,343.895 231.134 C 343.982 231.221,344.268 230.394,344.531 229.297 C 344.795 228.199,344.932 227.224,344.837 227.129 C 344.742 227.034,344.456 227.861,344.201 228.966 M55.143 229.883 C 55.138 230.714,56.145 234.059,56.202 233.398 C 56.220 233.184,55.990 232.129,55.691 231.055 C 55.393 229.980,55.146 229.453,55.143 229.883 M342.801 234.208 C 342.658 234.780,342.615 235.324,342.708 235.416 C 342.800 235.508,342.992 235.115,343.136 234.542 C 343.280 233.970,343.322 233.426,343.230 233.334 C 343.138 233.242,342.945 233.635,342.801 234.208 M56.309 234.375 C 56.309 234.697,56.546 235.576,56.836 236.328 C 57.126 237.080,57.362 237.432,57.362 237.109 C 57.362 236.787,57.126 235.908,56.836 235.156 C 56.546 234.404,56.309 234.053,56.309 234.375 M340.909 240.323 C 340.334 242.076,339.929 243.575,340.009 243.655 C 340.089 243.734,340.629 242.371,341.211 240.625 C 341.792 238.879,342.197 237.380,342.111 237.293 C 342.025 237.207,341.484 238.570,340.909 240.323 M57.442 238.166 C 57.397 239.234,62.796 253.350,63.123 253.022 C 63.202 252.944,62.715 251.572,62.042 249.975 C 61.368 248.377,60.062 244.961,59.139 242.383 C 58.216 239.805,57.452 237.907,57.442 238.166 M337.914 248.349 C 323.259 284.716,292.701 315.715,256.750 330.686 C 254.770 331.511,253.214 332.250,253.293 332.329 C 253.748 332.784,267.260 326.349,274.056 322.441 C 298.958 308.118,322.317 282.865,334.441 257.163 C 336.729 252.312,339.951 244.508,339.749 244.306 C 339.668 244.225,338.842 246.045,337.914 248.349 M210.819 259.349 C 208.091 264.064,205.864 268.064,205.869 268.238 C 205.874 268.412,208.202 269.785,211.042 271.289 C 213.882 272.793,217.607 274.864,219.319 275.892 C 221.031 276.919,222.686 277.710,222.997 277.649 C 223.752 277.502,233.332 261.057,233.067 260.364 C 232.704 259.419,219.470 251.923,216.581 251.026 C 215.874 250.807,215.189 251.796,210.819 259.349 M63.291 253.618 C 63.269 254.272,69.025 265.331,71.778 269.922 C 87.874 296.769,111.962 317.768,140.789 330.085 C 142.881 330.978,144.663 331.639,144.749 331.553 C 144.835 331.467,143.459 330.809,141.691 330.091 C 110.152 317.279,83.436 292.358,66.928 260.352 C 64.934 256.484,63.297 253.454,63.291 253.618 M145.703 331.965 C 146.025 332.164,146.729 332.445,147.266 332.589 C 147.944 332.770,148.063 332.739,147.656 332.488 C 147.334 332.289,146.631 332.008,146.094 331.865 C 145.415 331.683,145.296 331.714,145.703 331.965 M249.219 333.594 C 247.607 334.213,246.488 334.730,246.731 334.743 C 247.183 334.766,252.408 332.877,252.702 332.584 C 253.072 332.215,251.985 332.530,249.219 333.594 M148.438 332.942 C 148.438 333.059,149.932 333.641,151.758 334.236 C 155.882 335.579,156.038 334.701,149.872 344.797 C 140.725 359.773,140.618 359.993,141.875 361.250 C 142.504 361.879,196.155 361.929,197.954 361.302 C 199.367 360.810,199.693 360.330,205.424 350.315 C 209.546 343.114,209.906 342.613,211.066 342.468 L 212.305 342.313 211.083 342.250 C 209.565 342.172,209.972 341.620,204.506 351.172 C 201.986 355.576,199.498 359.619,198.977 360.156 L 198.029 361.133 170.792 361.243 C 155.811 361.304,143.159 361.257,142.676 361.138 C 140.739 360.663,141.389 359.319,151.735 342.423 C 153.826 339.008,155.621 335.994,155.724 335.726 C 155.848 335.404,154.805 334.872,152.663 334.163 C 150.876 333.572,149.194 333.008,148.926 332.909 C 148.657 332.810,148.438 332.825,148.438 332.942 M241.406 336.133 C 240.654 336.422,240.303 336.659,240.625 336.659 C 240.947 336.659,241.826 336.422,242.578 336.133 C 243.330 335.843,243.682 335.606,243.359 335.606 C 243.037 335.606,242.158 335.843,241.406 336.133 M237.305 337.319 C 235.764 337.852,235.761 337.857,237.109 337.629 C 238.703 337.360,240.332 336.766,239.453 336.774 C 239.131 336.776,238.164 337.022,237.305 337.319 M230.664 338.897 C 228.730 339.402,227.852 339.725,228.711 339.616 C 230.667 339.367,236.021 337.958,234.961 337.971 C 234.531 337.976,232.598 338.393,230.664 338.897 M221.875 340.625 C 220.557 340.902,220.550 340.913,221.680 340.918 C 222.324 340.921,223.379 340.789,224.023 340.625 C 225.645 340.212,223.835 340.212,221.875 340.625 M215.923 341.683 C 216.408 341.776,217.112 341.772,217.485 341.675 C 217.858 341.577,217.461 341.500,216.602 341.505 C 215.742 341.509,215.437 341.589,215.923 341.683 M212.988 342.066 C 213.364 342.164,213.979 342.164,214.355 342.066 C 214.731 341.968,214.424 341.888,213.672 341.888 C 212.920 341.888,212.612 341.968,212.988 342.066 " stroke="none" fill="#cbd6e0" fill-rule="evenodd"></path><path id="path3" d="M131.548 55.354 C 132.033 55.448,132.737 55.444,133.110 55.347 C 133.483 55.249,133.086 55.172,132.227 55.177 C 131.367 55.181,131.062 55.261,131.548 55.354 M136.032 55.634 C 138.649 56.568,139.205 57.163,159.329 80.568 C 170.274 93.296,182.345 107.314,186.153 111.719 C 199.043 126.626,201.687 132.363,197.065 135.391 C 195.235 136.590,197.213 138.187,199.658 137.486 C 204.812 136.008,209.003 137.350,219.451 143.825 C 222.610 145.783,228.096 149.142,231.641 151.288 C 242.694 157.981,244.968 160.908,245.904 169.645 C 246.153 171.973,246.336 172.411,247.447 173.350 C 257.897 182.178,265.542 189.990,267.240 193.574 C 270.087 199.583,271.933 217.692,270.482 225.391 C 270.069 227.585,269.754 231.256,269.712 234.375 C 269.618 241.397,268.406 244.972,264.388 250.074 C 263.764 250.866,262.992 252.395,262.672 253.471 C 262.353 254.547,260.818 257.326,259.262 259.647 C 257.706 261.968,252.845 269.987,248.461 277.466 C 244.076 284.945,240.124 291.395,239.678 291.798 C 239.232 292.202,238.398 292.938,237.824 293.434 C 237.250 293.930,231.553 303.477,225.163 314.648 C 218.773 325.820,211.493 338.477,208.985 342.773 C 203.818 351.624,203.418 352.344,203.668 352.344 C 203.767 352.344,204.768 350.718,205.894 348.730 C 207.020 346.743,208.682 343.975,209.589 342.578 C 210.496 341.182,217.172 329.668,224.424 316.992 C 231.676 304.316,237.790 293.877,238.010 293.793 C 239.477 293.238,241.971 289.536,249.356 276.953 C 253.959 269.111,258.804 261.117,260.124 259.187 C 261.444 257.257,262.780 254.815,263.093 253.759 C 263.407 252.704,264.349 250.932,265.188 249.821 C 268.922 244.875,270.428 240.112,270.247 233.821 C 270.170 231.160,270.368 228.679,270.857 226.172 C 272.054 220.028,271.136 204.747,269.125 197.340 C 267.471 191.251,266.782 190.389,254.785 179.391 C 246.829 172.097,246.484 171.721,246.484 170.328 C 246.484 163.905,242.637 157.482,236.547 153.735 C 206.829 135.455,209.803 136.932,202.652 136.902 C 196.769 136.877,196.257 136.731,197.800 135.518 C 201.894 132.297,199.401 126.287,188.965 114.224 C 179.457 103.233,164.631 86.011,154.525 74.219 C 139.887 57.137,137.769 55.034,135.269 55.095 C 134.885 55.105,135.228 55.347,136.032 55.634 M128.032 55.745 C 128.518 55.838,129.221 55.835,129.594 55.737 C 129.968 55.639,129.570 55.563,128.711 55.567 C 127.852 55.572,127.546 55.652,128.032 55.745 M124.516 56.136 C 125.002 56.229,125.705 56.226,126.079 56.128 C 126.452 56.030,126.055 55.954,125.195 55.958 C 124.336 55.962,124.030 56.042,124.516 56.136 M121.001 56.526 C 121.487 56.620,122.190 56.616,122.563 56.518 C 122.937 56.421,122.539 56.344,121.680 56.349 C 120.820 56.353,120.515 56.433,121.001 56.526 M115.264 58.043 C 114.603 58.599,114.068 59.258,114.074 59.507 C 114.081 59.757,114.272 59.641,114.499 59.251 C 114.726 58.860,115.468 58.202,116.148 57.787 C 116.827 57.373,117.177 57.034,116.925 57.033 C 116.672 57.032,115.925 57.486,115.264 58.043 M113.778 61.719 C 113.778 62.686,113.854 63.081,113.948 62.598 C 114.041 62.114,114.041 61.323,113.948 60.840 C 113.854 60.356,113.778 60.752,113.778 61.719 M126.953 63.680 C 125.510 63.919,125.659 63.945,127.783 63.824 L 130.371 63.676 134.012 69.045 C 139.427 77.029,155.647 100.756,168.315 119.223 C 174.463 128.185,179.753 135.957,180.072 136.494 C 180.636 137.444,180.584 137.539,178.232 139.862 C 176.901 141.177,175.321 143.029,174.722 143.977 C 173.360 146.133,173.624 146.163,168.904 143.316 L 164.947 140.929 155.946 124.078 C 134.883 84.643,124.508 65.008,124.494 64.551 C 124.480 64.100,123.828 63.816,123.828 64.261 C 123.828 64.464,146.248 106.749,158.084 128.869 L 164.648 141.137 168.662 143.615 C 173.524 146.617,173.344 146.609,175.197 143.918 C 176.021 142.721,177.730 140.806,178.995 139.661 L 181.294 137.580 162.768 110.489 C 152.579 95.589,141.184 78.916,137.447 73.438 C 130.034 62.572,130.579 63.078,126.953 63.680 M114.063 63.815 C 114.063 64.238,116.004 67.969,116.224 67.969 C 116.332 67.969,115.956 67.046,115.389 65.918 C 114.300 63.749,114.063 63.373,114.063 63.815 M117.847 71.387 C 118.612 73.052,121.304 78.281,123.830 83.008 C 126.356 87.734,134.265 102.588,141.406 116.016 C 148.546 129.443,155.259 142.056,156.322 144.043 C 157.386 146.030,158.092 147.656,157.891 147.656 C 157.691 147.656,144.275 143.874,128.080 139.251 C 92.411 129.070,94.716 129.577,85.867 129.982 C 75.456 130.459,74.862 131.700,80.538 141.122 C 83.535 146.098,82.929 145.742,119.701 164.144 C 156.530 182.576,155.545 182.147,166.194 184.382 C 170.286 185.241,173.996 186.025,174.439 186.125 C 174.884 186.225,176.457 187.934,177.943 189.931 C 181.285 194.421,189.228 202.398,192.983 205.035 C 197.284 208.056,199.358 208.725,204.527 208.763 L 208.859 208.795 213.849 213.284 C 218.167 217.169,223.688 223.548,224.444 225.525 C 224.539 225.773,223.790 226.415,222.779 226.950 C 218.606 229.161,217.575 230.588,206.548 249.414 C 197.331 265.152,197.061 265.657,196.697 267.841 C 196.540 268.785,195.515 270.920,194.258 272.919 C 184.014 289.213,155.859 335.028,155.859 335.403 C 155.859 335.607,152.739 340.929,151.252 343.262 C 150.944 343.745,150.789 344.141,150.909 344.141 C 151.029 344.141,153.631 339.966,156.692 334.863 C 161.954 326.089,182.216 293.139,192.532 276.581 C 195.892 271.187,197.266 268.636,197.266 267.789 C 197.266 266.280,197.657 265.550,207.333 249.023 C 218.015 230.780,219.787 228.432,224.029 226.898 C 225.784 226.263,225.802 226.341,222.998 222.561 C 221.682 220.787,220.532 219.144,220.441 218.910 C 220.351 218.676,217.705 216.150,214.562 213.296 L 208.848 208.108 206.084 208.348 C 197.767 209.070,187.531 202.194,178.581 189.874 C 175.482 185.609,175.979 185.870,167.815 184.213 C 156.061 181.827,156.911 182.190,120.901 164.165 C 81.646 144.515,84.286 146.025,81.440 141.602 C 75.274 132.016,75.934 130.720,87.081 130.538 C 96.214 130.388,91.885 129.428,125.781 139.121 C 163.609 149.938,159.630 149.216,157.271 144.838 C 156.543 143.487,153.577 137.900,150.679 132.422 C 147.782 126.943,139.700 111.738,132.719 98.633 C 125.739 85.527,119.299 73.354,118.408 71.582 C 116.362 67.512,116.012 67.390,117.847 71.387 M98.047 139.025 C 98.047 139.196,99.937 140.224,102.246 141.309 C 104.556 142.394,115.498 147.624,126.563 152.932 C 137.627 158.239,151.966 165.103,158.426 168.184 L 170.173 173.787 179.459 176.180 C 189.072 178.657,190.825 178.874,186.876 177.101 C 180.038 174.029,178.893 173.424,177.431 172.103 C 175.227 170.112,173.513 167.303,172.461 163.961 L 171.571 161.133 169.477 160.487 C 168.325 160.131,160.980 157.967,153.154 155.676 C 142.098 152.441,105.411 141.165,99.121 139.070 C 98.530 138.874,98.047 138.853,98.047 139.025 M186.821 144.749 C 179.575 148.360,177.284 159.029,182.532 164.723 C 184.830 167.216,185.506 167.028,185.263 163.965 C 184.997 160.612,187.133 148.745,188.481 146.084 C 189.901 143.283,189.848 143.240,186.821 144.749 M200.003 146.305 C 195.043 148.530,191.754 160.917,194.510 166.992 C 195.400 168.952,195.994 169.511,213.086 184.456 C 237.861 206.120,237.636 205.912,238.254 207.684 C 239.203 210.406,238.393 211.772,233.989 214.881 C 229.300 218.191,229.240 217.535,234.767 223.391 C 241.066 230.067,244.552 231.657,253.128 231.769 C 262.607 231.892,265.415 221.137,261.172 200.965 C 260.066 195.709,260.567 196.322,247.659 184.419 L 237.695 175.231 237.825 172.283 C 238.093 166.202,236.483 163.963,228.293 159.022 C 225.300 157.217,219.250 153.526,214.848 150.822 L 206.844 145.904 204.106 145.799 C 202.260 145.727,200.922 145.893,200.003 146.305 M207.452 159.736 C 209.742 162.025,208.355 165.625,205.184 165.625 C 203.376 165.625,202.227 164.885,201.569 163.297 C 200.147 159.863,204.776 157.060,207.452 159.736 M220.990 168.262 C 221.678 168.638,224.487 170.976,227.234 173.459 C 229.980 175.941,237.324 182.548,243.555 188.142 C 257.271 200.455,257.813 201.025,257.813 203.146 C 257.813 206.875,254.772 209.107,251.425 207.834 C 250.210 207.373,215.448 176.130,214.799 174.916 C 212.594 170.797,216.988 166.075,220.990 168.262 M189.063 188.570 C 189.063 190.559,202.331 200.925,203.447 199.808 C 204.179 199.076,192.743 188.747,190.918 188.492 C 189.897 188.350,189.063 188.385,189.063 188.570 M226.065 235.547 C 225.076 236.325,220.703 242.591,220.703 243.230 C 220.703 243.415,222.921 244.608,225.631 245.881 C 234.419 250.009,243.114 255.193,247.027 258.638 C 249.268 260.610,249.055 260.712,251.707 256.396 C 254.462 251.913,254.890 250.862,254.536 249.449 C 253.009 243.364,230.254 232.252,226.065 235.547 M215.329 250.879 C 214.881 251.437,205.078 268.330,205.078 268.544 C 205.078 268.621,207.583 269.993,210.645 271.592 C 217.056 274.941,224.598 279.409,230.413 283.302 C 232.638 284.792,234.596 285.862,234.765 285.681 C 235.634 284.750,244.294 269.261,244.314 268.604 C 244.394 265.843,216.842 248.993,215.329 250.879 M220.812 252.991 C 225.680 255.427,232.821 259.723,233.067 260.364 C 233.332 261.057,223.752 277.502,222.997 277.649 C 222.686 277.710,221.031 276.919,219.319 275.892 C 217.607 274.864,213.882 272.793,211.042 271.289 C 208.202 269.785,205.874 268.412,205.869 268.238 C 205.829 266.906,215.853 250.800,216.581 251.026 C 217.022 251.163,218.926 252.047,220.812 252.991 M202.236 276.433 C 200.565 279.096,195.218 287.779,186.519 301.953 C 181.839 309.580,176.390 318.457,174.411 321.680 C 172.431 324.902,167.427 333.076,163.291 339.844 C 159.154 346.611,154.587 354.082,153.141 356.445 L 150.512 360.742 146.447 360.742 C 141.512 360.742,141.283 360.405,143.590 356.541 C 145.395 353.518,145.397 353.516,145.185 353.516 C 144.733 353.516,141.797 359.041,141.797 359.890 C 141.797 361.359,141.270 361.334,170.247 361.236 C 185.215 361.185,191.792 361.095,184.863 361.035 C 176.435 360.963,172.266 360.792,172.266 360.519 C 172.266 360.294,174.342 356.649,176.879 352.419 C 179.416 348.188,189.523 331.340,199.337 314.980 C 209.152 298.619,217.278 284.985,217.394 284.682 C 217.539 284.303,215.546 282.769,211.015 279.773 C 202.865 274.384,203.395 274.585,202.236 276.433 M148.136 348.340 C 145.333 352.932,145.224 353.125,145.424 353.125 C 145.511 353.125,146.518 351.587,147.661 349.707 C 148.804 347.827,149.994 345.894,150.305 345.410 C 150.617 344.927,150.779 344.531,150.666 344.531 C 150.553 344.531,149.415 346.245,148.136 348.340 M202.694 353.613 C 202.443 354.097,201.792 355.283,201.249 356.250 C 200.706 357.217,200.447 357.832,200.674 357.617 C 201.242 357.078,203.642 352.734,203.371 352.734 C 203.251 352.734,202.946 353.130,202.694 353.613 M198.981 359.592 C 198.313 360.332,197.887 360.938,198.034 360.938 C 198.328 360.938,199.723 359.464,200.160 358.691 C 200.606 357.905,200.276 358.156,198.981 359.592 " stroke="none" fill="#7c9bb3" fill-rule="evenodd"></path></g></svg>